<svg xmlns:xlink="http://www.w3.org/1999/xlink" height="400" width="300" version="1.1" xmlns="http://www.w3.org/2000/svg"><desc>Created with Highcharts 3.0.1</desc><defs><clipPath id="highcharts-55"><rect height="400" width="9999" y="0" x="0" fill="none" ry="0" rx="0"></rect></clipPath><clipPath id="highcharts-56"><rect height="259" width="300" y="0" x="0" fill="none"></rect></clipPath></defs><rect height="400" width="300" y="0" x="0" fill="#FFFFFF" ry="0" rx="0"></rect><g  class="highcharts-grid"><path opacity="1"  stroke-width="1" stroke="#C0C0C0" d="M 30 260.5 L 290 260.5" fill="none"></path><path opacity="1"  stroke-width="1" stroke="#C0C0C0" d="M 30 189.5 L 290 189.5" fill="none"></path><path opacity="1"  stroke-width="1" stroke="#C0C0C0" d="M 30 118.5 L 290 118.5" fill="none"></path><path opacity="1"  stroke-width="1" stroke="#C0C0C0" d="M 30 46.5 L 290 46.5" fill="none"></path><path opacity="1"  stroke-width="1" stroke="#C0C0C0" d="M 30 331.5 L 290 331.5" fill="none"></path></g><g  class="highcharts-grid"><path opacity="1"  stroke-width="1" stroke="#C0C0C0" d="M 94.5 45 L 94.5 345" fill="none"></path><path opacity="1"  stroke-width="1" stroke="#C0C0C0" d="M 159.5 45 L 159.5 345" fill="none"></path><path opacity="1"  stroke-width="1" stroke="#C0C0C0" d="M 224.5 45 L 224.5 345" fill="none"></path><path opacity="1"  stroke-width="1" stroke="#C0C0C0" d="M 289.5 45 L 289.5 345" fill="none"></path><path opacity="1"  stroke-width="1" stroke="#C0C0C0" d="M 30.5 45 L 30.5 345" fill="none"></path></g><g  class="highcharts-axis"><path opacity="1" stroke-width="1" stroke="#C0D0E0" d="M 30 260.5 L 25 260.5" fill="none"></path><path opacity="1" stroke-width="1" stroke="#C0D0E0" d="M 30 189.5 L 25 189.5" fill="none"></path><path opacity="1" stroke-width="1" stroke="#C0D0E0" d="M 30 118.5 L 25 118.5" fill="none"></path><path opacity="1" stroke-width="1" stroke="#C0D0E0" d="M 30 46.5 L 25 46.5" fill="none"></path><path opacity="1" stroke-width="1" stroke="#C0D0E0" d="M 30 331.5 L 25 331.5" fill="none"></path><path visibility="visible"  stroke-width="1" stroke="#C0D0E0" d="M 30.5 45 L 30.5 345" fill="none"></path></g><g  class="highcharts-axis"></g><g  class="highcharts-series-group"><g clip-path="url(#highcharts-56)" height="300" width="260" transform="translate(290,345) rotate(90) scale(-1,1) scale(1 1)"  visibility="visible" class="highcharts-series"><path  fill-opacity="0.75" d="M 15.128727010239556 130 L 15.52905687136718 130.6 L 23.235406698073938 131.1 L 28.239529962169236 131.7 L 32.142746108163564 132.2 L 35.44546746246646 132.8 L 38.247776490359826 133.4 L 40.84992058768938 133.9 L 43.251899754455124 134.5 L 45.45371399065706 135.1 L 47.55544576157708 135.6 L 49.65717753249711 136.2 L 51.65882683813523 136.8 L 53.660476143773344 137.4 L 55.66212544941146 137.9 L 57.66377475504958 138.5 L 59.765506525969606 139.1 L 61.86723829688963 139.6 L 62.86806294970869 140.4 L 64.26921746365538 141.4 L 65.97061937344779 142 L 66.67119663042114 142.8 L 68.0723511443678 143.3 L 69.47350565831448 143.9 L 70.87466017226117 144.4 L 71.67531989451642 145.3 L 72.07564975564405 146 L 73.17655687374501 146.6 L 74.27746399184598 147.2 L 75.37837110994694 147.8 L 76.379195762766 148.4 L 77.38002041558505 148.9 L 78.38084506840411 149.5 L 79.38166972122319 150.1 L 80.28241190876034 150.7 L 81.18315409629749 151.3 L 82.08389628383465 151.9 L 82.9846384713718 152.5 L 83.88538065890896 153.1 L 84.68604038116419 153.7 L 85.48670010341945 154.2 L 86.28735982567468 154.8 L 86.3874422909566 155.5 L 87.08801954792995 156 L 87.78859680490328 156.6 L 88.48917406187661 157.2 L 89.18975131884996 157.9 L 89.8903285758233 158.5 L 90.59090583279665 159.1 L 91.19140062448808 159.7 L 91.79189541617951 160.3 L 92.39239020787095 160.9 L 92.99288499956239 161.5 L 93.59337979125382 162.1 L 94.19387458294526 162.7 L 94.7943693746367 163.3 L 95.39486416632813 164 L 95.99535895801957 164.6 L 96.59585374971101 165.3 L 97.09626607612053 165.8 L 97.59667840253006 166.4 L 98.09709072893959 167 L 98.59750305534912 167.6 L 99.09791538175865 168.1 L 99.59832770816817 168.7 L 100.0987400345777 169.3 L 100.59915236098725 169.9 L 101.09956468739678 170.6 L 101.59997701380631 171.2 L 102.10038934021583 171.8 L 102.60080166662536 172.4 L 103.10121399303489 173 L 103.60162631944442 173.7 L 104.10203864585395 174.3 L 104.60245097226347 175 L 105.102863298673 175.6 L 105.60327562508255 176.3 L 106.10368795149208 176.9 L 106.6041002779016 177.6 L 107.10451260431113 178.2 L 107.60492493072066 178.9 L 108.10533725713019 179.5 L 108.60574958353972 180.2 L 109.10616190994924 180.8 L 109.60657423635877 181.5 L 110.1069865627683 182.1 L 110.60739888917784 182.8 L 111.10781121558738 183.4 L 111.60822354199689 184.1 L 112.10863586840642 184.7 L 112.60904819481595 185.4 L 113.10946052122549 186 L 113.60987284763502 186.6 L 114.11028517404453 187.3 L 114.61069750045407 187.9 L 115.1111098268636 188.5 L 115.61152215327316 189.1 L 116.11193447968266 189.7 L 116.6123468060922 190.3 L 117.11275913250171 190.9 L 117.61317145891127 191.4 L 118.11358378532077 192 L 118.71407857701222 192.7 L 119.31457336870366 193.3 L 119.9150681603951 193.9 L 120.51556295208651 194.5 L 121.11605774377796 195.1 L 121.71655253546942 195.7 L 122.41712979244274 196.3 L 123.11770704941608 196.9 L 123.81828430638942 197.5 L 124.61894402864466 198.1 L 125.41960375089992 198.6 L 126.32034593843706 199.2 L 127.32117059125612 199.8 L 128.522160174639 200.4 L 130.02339715386756 200.9 L 133.42620097345238 201.5 L 137.12925218888287 200.9 L 138.6304891681115 200.4 L 139.83147875149436 199.7 L 140.83230340431342 199.1 L 141.73304559185055 198.5 L 142.53370531410582 197.9 L 143.23428257107915 197.4 L 143.93485982805248 196.8 L 144.1350247586163 196.1 L 144.83560201558964 195.4 L 145.4360968072811 194.9 L 146.03659159897254 194.3 L 146.63708639066394 193.7 L 147.2375811823554 193 L 147.83807597404683 192.4 L 148.33848830045636 191.8 L 148.8389006268659 191.2 L 149.33931295327542 190.6 L 149.83972527968496 190 L 150.3401376060945 189.4 L 150.84054993250402 188.8 L 151.34096225891355 188.1 L 151.84137458532308 187.4 L 152.3417869117326 186.8 L 152.84219923814214 186.1 L 153.24252909926977 185.5 L 153.64285896039738 185 L 154.043188821525 184.4 L 154.4435186826526 183.8 L 154.84384854378024 183.2 L 155.24417840490787 182.6 L 155.6445082660355 182.1 L 156.04483812716313 181.5 L 156.44516798829076 180.9 L 156.84549784941836 180.3 L 157.245827710546 179.7 L 157.64615757167363 179 L 158.04648743280123 178.4 L 158.44681729392886 177.8 L 158.8471471550565 177.2 L 159.24747701618412 176.6 L 159.64780687731175 176 L 160.04813673843935 175.3 L 160.44846659956698 174.7 L 160.84879646069462 174.1 L 161.24912632182222 173.5 L 161.64945618294985 172.8 L 162.04978604407748 172.2 L 162.4501159052051 171.6 L 162.85044576633274 171 L 163.25077562746037 170.3 L 163.65110548858797 169.7 L 164.0514353497156 169.1 L 164.4517652108432 168.5 L 164.85209507197084 167.8 L 165.25242493309847 167.2 L 165.65275479422607 166.6 L 166.05308465535373 166 L 166.45341451648136 165.4 L 166.85374437760896 164.8 L 167.2540742387366 164.2 L 167.65440409986422 163.6 L 168.05473396099183 163 L 168.45506382211946 162.4 L 168.8553936832471 161.8 L 169.25572354437472 161.2 L 169.65605340550235 160.6 L 170.05638326662995 160.1 L 170.45671312775758 159.5 L 170.8570429888852 158.9 L 171.2573728500128 158.4 L 171.65770271114044 157.8 L 172.15811503754998 157.1 L 172.6585273639595 156.4 L 173.15893969036904 155.8 L 173.65935201677857 155.1 L 174.1597643431881 154.5 L 174.66017666959763 153.8 L 175.16058899600716 153.2 L 175.66100132241667 152.5 L 176.1614136488262 151.9 L 176.66182597523573 151.3 L 177.1622383016453 150.7 L 177.66265062805482 150.1 L 178.16306295446435 149.6 L 178.66347528087388 149 L 179.1638876072834 148.4 L 179.76438239897482 147.8 L 180.36487719066628 147.1 L 180.9653719823577 146.5 L 181.56586677404914 145.9 L 182.16636156574057 145.3 L 182.76685635743203 144.7 L 183.36735114912344 144.2 L 184.0679284060968 143.5 L 184.76850566307013 142.9 L 185.4690829200435 142.3 L 186.1696601770168 141.8 L 186.87023743399016 141.2 L 187.67089715624542 140.6 L 188.47155687850065 140 L 189.27221660075588 139.4 L 190.17295878829304 138.8 L 191.0737009758302 138.3 L 191.87436069808547 137.2 L 192.9752678161864 136.7 L 193.27551521203213 136 L 194.57658726069693 135.4 L 195.67749437879786 134.4 L 197.47897875387218 133.9 L 199.4806280595103 133.3 L 200.68161764289317 132.4 L 201.0819475040208 131.8 L 205.68574090698846 131.3 L 212.29118361559426 130.7 L 215.29365757405142 130 L 215.29365757405142 130 L 15.128727010239556 130" fill="rgb(1,105,140)"></path><path  stroke-width="2" stroke="#01698C" d="M 15.128727010239556 130 L 15.52905687136718 130.6 L 23.235406698073938 131.1 L 28.239529962169236 131.7 L 32.142746108163564 132.2 L 35.44546746246646 132.8 L 38.247776490359826 133.4 L 40.84992058768938 133.9 L 43.251899754455124 134.5 L 45.45371399065706 135.1 L 47.55544576157708 135.6 L 49.65717753249711 136.2 L 51.65882683813523 136.8 L 53.660476143773344 137.4 L 55.66212544941146 137.9 L 57.66377475504958 138.5 L 59.765506525969606 139.1 L 61.86723829688963 139.6 L 62.86806294970869 140.4 L 64.26921746365538 141.4 L 65.97061937344779 142 L 66.67119663042114 142.8 L 68.0723511443678 143.3 L 69.47350565831448 143.9 L 70.87466017226117 144.4 L 71.67531989451642 145.3 L 72.07564975564405 146 L 73.17655687374501 146.6 L 74.27746399184598 147.2 L 75.37837110994694 147.8 L 76.379195762766 148.4 L 77.38002041558505 148.9 L 78.38084506840411 149.5 L 79.38166972122319 150.1 L 80.28241190876034 150.7 L 81.18315409629749 151.3 L 82.08389628383465 151.9 L 82.9846384713718 152.5 L 83.88538065890896 153.1 L 84.68604038116419 153.7 L 85.48670010341945 154.2 L 86.28735982567468 154.8 L 86.3874422909566 155.5 L 87.08801954792995 156 L 87.78859680490328 156.6 L 88.48917406187661 157.2 L 89.18975131884996 157.9 L 89.8903285758233 158.5 L 90.59090583279665 159.1 L 91.19140062448808 159.7 L 91.79189541617951 160.3 L 92.39239020787095 160.9 L 92.99288499956239 161.5 L 93.59337979125382 162.1 L 94.19387458294526 162.7 L 94.7943693746367 163.3 L 95.39486416632813 164 L 95.99535895801957 164.6 L 96.59585374971101 165.3 L 97.09626607612053 165.8 L 97.59667840253006 166.4 L 98.09709072893959 167 L 98.59750305534912 167.6 L 99.09791538175865 168.1 L 99.59832770816817 168.7 L 100.0987400345777 169.3 L 100.59915236098725 169.9 L 101.09956468739678 170.6 L 101.59997701380631 171.2 L 102.10038934021583 171.8 L 102.60080166662536 172.4 L 103.10121399303489 173 L 103.60162631944442 173.7 L 104.10203864585395 174.3 L 104.60245097226347 175 L 105.102863298673 175.6 L 105.60327562508255 176.3 L 106.10368795149208 176.9 L 106.6041002779016 177.6 L 107.10451260431113 178.2 L 107.60492493072066 178.9 L 108.10533725713019 179.5 L 108.60574958353972 180.2 L 109.10616190994924 180.8 L 109.60657423635877 181.5 L 110.1069865627683 182.1 L 110.60739888917784 182.8 L 111.10781121558738 183.4 L 111.60822354199689 184.1 L 112.10863586840642 184.7 L 112.60904819481595 185.4 L 113.10946052122549 186 L 113.60987284763502 186.6 L 114.11028517404453 187.3 L 114.61069750045407 187.9 L 115.1111098268636 188.5 L 115.61152215327316 189.1 L 116.11193447968266 189.7 L 116.6123468060922 190.3 L 117.11275913250171 190.9 L 117.61317145891127 191.4 L 118.11358378532077 192 L 118.71407857701222 192.7 L 119.31457336870366 193.3 L 119.9150681603951 193.9 L 120.51556295208651 194.5 L 121.11605774377796 195.1 L 121.71655253546942 195.7 L 122.41712979244274 196.3 L 123.11770704941608 196.9 L 123.81828430638942 197.5 L 124.61894402864466 198.1 L 125.41960375089992 198.6 L 126.32034593843706 199.2 L 127.32117059125612 199.8 L 128.522160174639 200.4 L 130.02339715386756 200.9 L 133.42620097345238 201.5 L 137.12925218888287 200.9 L 138.6304891681115 200.4 L 139.83147875149436 199.7 L 140.83230340431342 199.1 L 141.73304559185055 198.5 L 142.53370531410582 197.9 L 143.23428257107915 197.4 L 143.93485982805248 196.8 L 144.1350247586163 196.1 L 144.83560201558964 195.4 L 145.4360968072811 194.9 L 146.03659159897254 194.3 L 146.63708639066394 193.7 L 147.2375811823554 193 L 147.83807597404683 192.4 L 148.33848830045636 191.8 L 148.8389006268659 191.2 L 149.33931295327542 190.6 L 149.83972527968496 190 L 150.3401376060945 189.4 L 150.84054993250402 188.8 L 151.34096225891355 188.1 L 151.84137458532308 187.4 L 152.3417869117326 186.8 L 152.84219923814214 186.1 L 153.24252909926977 185.5 L 153.64285896039738 185 L 154.043188821525 184.4 L 154.4435186826526 183.8 L 154.84384854378024 183.2 L 155.24417840490787 182.6 L 155.6445082660355 182.1 L 156.04483812716313 181.5 L 156.44516798829076 180.9 L 156.84549784941836 180.3 L 157.245827710546 179.7 L 157.64615757167363 179 L 158.04648743280123 178.4 L 158.44681729392886 177.8 L 158.8471471550565 177.2 L 159.24747701618412 176.6 L 159.64780687731175 176 L 160.04813673843935 175.3 L 160.44846659956698 174.7 L 160.84879646069462 174.1 L 161.24912632182222 173.5 L 161.64945618294985 172.8 L 162.04978604407748 172.2 L 162.4501159052051 171.6 L 162.85044576633274 171 L 163.25077562746037 170.3 L 163.65110548858797 169.7 L 164.0514353497156 169.1 L 164.4517652108432 168.5 L 164.85209507197084 167.8 L 165.25242493309847 167.2 L 165.65275479422607 166.6 L 166.05308465535373 166 L 166.45341451648136 165.4 L 166.85374437760896 164.8 L 167.2540742387366 164.2 L 167.65440409986422 163.6 L 168.05473396099183 163 L 168.45506382211946 162.4 L 168.8553936832471 161.8 L 169.25572354437472 161.2 L 169.65605340550235 160.6 L 170.05638326662995 160.1 L 170.45671312775758 159.5 L 170.8570429888852 158.9 L 171.2573728500128 158.4 L 171.65770271114044 157.8 L 172.15811503754998 157.1 L 172.6585273639595 156.4 L 173.15893969036904 155.8 L 173.65935201677857 155.1 L 174.1597643431881 154.5 L 174.66017666959763 153.8 L 175.16058899600716 153.2 L 175.66100132241667 152.5 L 176.1614136488262 151.9 L 176.66182597523573 151.3 L 177.1622383016453 150.7 L 177.66265062805482 150.1 L 178.16306295446435 149.6 L 178.66347528087388 149 L 179.1638876072834 148.4 L 179.76438239897482 147.8 L 180.36487719066628 147.1 L 180.9653719823577 146.5 L 181.56586677404914 145.9 L 182.16636156574057 145.3 L 182.76685635743203 144.7 L 183.36735114912344 144.2 L 184.0679284060968 143.5 L 184.76850566307013 142.9 L 185.4690829200435 142.3 L 186.1696601770168 141.8 L 186.87023743399016 141.2 L 187.67089715624542 140.6 L 188.47155687850065 140 L 189.27221660075588 139.4 L 190.17295878829304 138.8 L 191.0737009758302 138.3 L 191.87436069808547 137.2 L 192.9752678161864 136.7 L 193.27551521203213 136 L 194.57658726069693 135.4 L 195.67749437879786 134.4 L 197.47897875387218 133.9 L 199.4806280595103 133.3 L 200.68161764289317 132.4 L 201.0819475040208 131.8 L 205.68574090698846 131.3 L 212.29118361559426 130.7 L 215.29365757405142 130" fill="none"></path></g><g clip-path="none" height="300" width="260" transform="translate(290,345) rotate(90) scale(-1,1) scale(1 1)"  visibility="visible" class="highcharts-markers"></g><g clip-path="url(#highcharts-56)" height="300" width="260" transform="translate(290,345) rotate(90) scale(-1,1) scale(1 1)"  visibility="visible" class="highcharts-series"><path  fill-opacity="0.75" d="M 1.4648278936531185 130 L 1.6113106830184323 128.5 L 4.248000891594086 127.7 L 6.152277153343168 126.7 L 7.763587836361622 126.2 L 8.496001783188193 125.5 L 9.814346887476018 124.9 L 10.986209202398532 124.4 L 12.011588727955731 123.4 L 12.890485464147615 122.4 L 13.7693822003395 121.8 L 14.50179614716607 121.3 L 15.23421009399264 120.8 L 15.966624040819209 120.2 L 16.69903798764578 119.6 L 17.43145193447235 119 L 18.017383091933606 118.5 L 18.603314249394863 118 L 19.189245406856116 117.5 L 19.775176564317377 116.9 L 20.36110772177863 116.3 L 20.94703887923989 115.7 L 21.240004457970517 114.9 L 21.82593561543177 114.3 L 22.265383983527716 113.8 L 22.704832351623654 113.3 L 23.1442807197196 112.7 L 23.583729087815538 112.2 L 24.02317745591148 111.7 L 24.462625824007425 111.1 L 24.902074192103367 110.5 L 25.34152256019931 110 L 25.780970928295254 109.4 L 26.220419296391192 108.7 L 26.659867664487134 108.1 L 27.09931603258308 107.5 L 27.538764400679018 106.9 L 27.978212768774963 106.2 L 28.4176611368709 105.5 L 28.857109504966846 104.9 L 29.29655787306279 104.2 L 29.73600624115873 103.5 L 30.175454609254672 102.8 L 30.614902977350617 102 L 31.054351345446552 101.3 L 31.347316924177186 100.8 L 31.64028250290781 100.3 L 31.933248081638443 99.8 L 32.22621366036907 99.3 L 32.51917923909969 98.8 L 32.81214481783032 98.3 L 33.10511039656095 97.7 L 33.398075975291576 97.2 L 33.691041554022206 96.7 L 33.984007132752836 95.7 L 34.27697271148346 95.1 L 34.56993829021409 94.6 L 34.86290386894471 94 L 35.15586944767535 93.4 L 35.44883502640597 92.8 L 35.7418006051366 92.3 L 36.03476618386723 91.7 L 36.32773176259786 91.1 L 36.62069734132849 90.5 L 36.91366292005911 89.9 L 37.20662849878975 89.3 L 37.49959407752037 88.7 L 37.792559656251 88.1 L 38.085525234981624 87.5 L 38.378490813712254 86.9 L 38.671456392442884 86.3 L 38.964421971173515 85.6 L 39.25738754990414 85 L 39.40387033926945 84.2 L 39.69683591800008 83.6 L 39.98980149673071 82.9 L 40.28276707546134 82.3 L 40.57573265419197 81.6 L 40.86869823292259 81 L 41.16166381165322 80.3 L 41.45462939038385 79.7 L 41.74759496911448 79 L 42.040560547845104 78.3 L 42.333526126575734 77.6 L 42.626491705306364 77 L 42.919457284036994 76.3 L 43.21242286276762 75.6 L 43.50538844149825 74.9 L 43.79835402022888 74.3 L 44.0913195989595 73.6 L 44.38428517769013 72.9 L 44.677250756420754 72.2 L 44.970216335151385 71.5 L 45.26318191388202 70.8 L 45.556147492612645 70.1 L 45.849113071343275 69.5 L 46.1420786500739 68.8 L 46.43504422880453 68.1 L 46.72800980753516 67.4 L 47.02097538626578 66.7 L 47.31394096499641 66 L 47.606906543727035 65.3 L 47.899872122457666 64.6 L 48.192837701188296 63.9 L 48.485803279918926 63.2 L 48.778768858649556 62.5 L 49.07173443738018 61.8 L 49.36470001611081 61.2 L 49.65766559484144 60.5 L 49.95063117357206 59.8 L 50.24359675230269 59.1 L 50.536562331033316 58.4 L 50.82952790976395 57.7 L 51.12249348849458 57 L 51.4154590672252 56.4 L 51.70842464595584 55.7 L 52.00139022468646 55 L 52.29435580341709 54.3 L 52.58732138214772 53.7 L 52.880286960878344 53 L 53.173252539608974 52.3 L 53.466218118339604 51.7 L 53.75918369707023 51 L 54.05214927580086 50.4 L 54.34511485453148 49.7 L 54.63808043326212 49.1 L 54.93104601199275 48.4 L 55.22401159072337 47.8 L 55.516977169454 47.2 L 55.809942748184625 46.6 L 56.102908326915255 45.9 L 56.395873905645885 45.3 L 56.68883948437651 44.7 L 56.98180506310714 44.1 L 57.27477064183776 43.5 L 57.56773622056839 42.9 L 57.86070179929903 42.3 L 58.15366737802965 41.7 L 58.44663295676028 41.1 L 58.73959853549091 40.6 L 59.032564114221536 40 L 59.32552969295216 39.5 L 59.61849527168279 38.9 L 59.91146085041343 38.4 L 60.20442642914404 37.8 L 60.497392007874666 37.3 L 60.7903575866053 36.8 L 61.08332316533593 36.3 L 61.37628874406657 35.8 L 61.66925432279719 35.3 L 62.108702690893125 34.5 L 62.54815105898908 33.8 L 62.987599427085016 33.1 L 63.427047795180954 32.4 L 63.866496163276906 31.8 L 64.30594453137284 31.1 L 64.74539289946878 30.5 L 65.18484126756474 29.9 L 65.62428963566067 29.4 L 66.06373800375661 28.8 L 66.50318637185256 28.3 L 66.94263473994849 27.8 L 67.52856589740976 27.1 L 68.11449705487101 26.5 L 68.70042821233227 26 L 69.28635936979353 25.4 L 70.0187733166201 24.9 L 70.75118726344667 24.3 L 71.63008399963854 23.8 L 72.80194631456106 23.3 L 74.70622257631015 22.7 L 78.80774067853893 23.3 L 79.97960299346146 23.8 L 80.85849972965333 24.3 L 81.5909136764799 24.8 L 82.32332762330648 25.4 L 82.90925878076773 25.9 L 83.49518993822899 26.4 L 84.08112109569024 27 L 84.6670522531515 27.6 L 85.25298341061276 28.3 L 85.69243177870871 28.8 L 86.13188014680465 29.3 L 86.57132851490059 29.9 L 87.01077688299652 30.5 L 87.45022525109246 31.1 L 87.8896736191884 31.7 L 88.32912198728435 32.3 L 88.76857035538029 32.9 L 89.20801872347623 33.6 L 89.64746709157218 34.3 L 90.08691545966812 35 L 90.52636382776406 35.7 L 90.96581219586001 36.4 L 91.40526056395595 37.1 L 91.69822614268656 37.6 L 91.99119172141721 38.2 L 92.28415730014784 38.7 L 92.57712287887846 39.2 L 92.87008845760909 39.7 L 93.16305403633972 40.2 L 93.45601961507035 40.8 L 93.74898519380096 41.3 L 94.0419507725316 41.9 L 94.33491635126222 42.4 L 94.62788192999285 43 L 94.92084750872348 43.5 L 95.21381308745411 44.1 L 95.50677866618474 44.7 L 95.79974424491537 45.2 L 96.092709823646 45.8 L 96.38567540237662 46.4 L 96.67864098110725 47 L 96.97160655983788 47.6 L 97.26457213856851 48.2 L 97.55753771729913 48.8 L 97.85050329602977 49.4 L 98.14346887476039 50 L 98.43643445349102 50.6 L 98.72940003222166 51.2 L 99.02236561095228 51.8 L 99.31533118968291 52.4 L 99.60829676841352 53 L 99.90126234714417 53.6 L 100.19422792587478 54.3 L 100.48719350460541 54.9 L 100.78015908333605 55.5 L 101.07312466206668 56.1 L 101.36609024079729 56.8 L 101.65905581952794 57.4 L 101.95202139825857 58 L 102.24498697698918 58.7 L 102.53795255571981 59.3 L 102.83091813445044 59.9 L 103.12388371318107 60.5 L 103.41684929191169 61.2 L 103.70981487064233 61.8 L 104.00278044937295 62.5 L 104.29574602810358 63.1 L 104.58871160683421 63.7 L 104.88167718556484 64.4 L 105.17464276429547 65 L 105.4676083430261 65.6 L 105.76057392175673 66.3 L 106.05353950048735 66.9 L 106.34650507921798 67.5 L 106.6394706579486 68.2 L 106.93243623667924 68.8 L 107.22540181540985 69.4 L 107.5183673941405 70.1 L 107.81133297287113 70.7 L 108.10429855160174 71.3 L 108.39726413033239 71.9 L 108.690229709063 72.6 L 108.98319528779363 73.2 L 109.27616086652425 73.8 L 109.5691264452549 74.4 L 109.86209202398551 75 L 110.15505760271614 75.7 L 110.44802318144677 76.3 L 110.7409887601774 76.9 L 111.03395433890803 77.5 L 111.32691991763866 78.1 L 111.61988549636929 78.7 L 111.91285107509991 79.3 L 112.20581665383054 79.9 L 112.49878223256117 80.5 L 112.7917478112918 81.1 L 113.08471339002242 81.7 L 113.37767896875306 82.3 L 113.67064454748368 82.9 L 113.9636101262143 83.4 L 114.25657570494495 84 L 114.54954128367557 84.6 L 114.8425068624062 85.2 L 115.13547244113683 85.7 L 115.42843801986746 86.3 L 115.72140359859809 86.9 L 116.01436917732872 87.4 L 116.30733475605933 88 L 116.60030033478996 88.5 L 116.89326591352058 89.1 L 117.18623149225121 89.6 L 117.47919707098184 90.2 L 117.77216264971247 90.7 L 118.06512822844311 91.2 L 118.35809380717374 91.8 L 118.65105938590438 92.3 L 118.94402496463498 92.8 L 119.23699054336562 93.3 L 119.52995612209622 93.9 L 119.82292170082685 94.4 L 120.1158872795575 94.9 L 120.40885285828813 95.4 L 120.70181843701876 95.9 L 120.99478401574939 96.4 L 121.43423238384533 97.1 L 121.87368075194127 97.8 L 122.31312912003722 98.5 L 122.75257748813314 99.2 L 123.1920258562291 99.9 L 123.63147422432505 100.6 L 124.07092259242097 101.3 L 124.51037096051692 102 L 124.94981932861288 102.6 L 125.3892676967088 103.3 L 125.82871606480475 103.9 L 126.2681644329007 104.5 L 126.70761280099663 105.1 L 127.14706116909258 105.8 L 127.58650953718853 106.4 L 128.02595790528446 106.9 L 128.4654062733804 107.5 L 128.90485464147633 108.1 L 129.3443030095723 108.6 L 129.7837513776682 109.2 L 130.22319974576413 109.7 L 130.51616532449478 111.5 L 131.10209648195604 112.1 L 131.6880276394173 112.7 L 132.27395879687856 113.3 L 132.8598899543398 113.9 L 133.29933832243574 114.8 L 133.885269479897 115.3 L 134.47120063735827 115.8 L 135.05713179481953 116.8 L 135.7895457416461 117.4 L 136.52195968847266 117.9 L 137.25437363529923 118.5 L 137.54733921402988 119.1 L 138.42623595022175 119.7 L 139.30513268641363 120.3 L 140.1840294226055 120.8 L 141.06292615879738 121.8 L 141.94182289498926 122.7 L 143.11368520991178 123.3 L 144.28554752483433 123.8 L 145.60389262912213 124.3 L 146.92223773340996 124.8 L 148.3870656270631 125.3 L 149.99837631008154 125.9 L 150.14485909944688 126.4 L 155.27175672723286 126.9 L 160.8381027231148 127.4 L 163.0353445635945 127.9 L 165.52555198280484 127.3 L 171.23838076805208 126.8 L 173.28913981916648 126.3 L 175.19341608091557 125.7 L 176.95120955329932 125.2 L 178.5625202363178 124.7 L 180.02734812997093 124.2 L 181.49217602362407 123.7 L 182.95700391727723 123.1 L 184.27534902156503 122.6 L 185.59369412585286 122.1 L 186.9120392301407 121.5 L 188.0839015450632 121 L 189.25576385998573 120.5 L 190.42762617490823 120 L 191.59948848983075 119.5 L 192.77135080475324 118.9 L 193.94321311967576 118.4 L 195.11507543459828 117.8 L 196.28693774952077 117.3 L 197.4588000644433 116.7 L 198.63066237936582 116.1 L 199.80252469428834 115.6 L 200.97438700921086 115.1 L 202.14624932413335 114.5 L 203.31811163905587 114 L 204.48997395397836 113.5 L 205.8083190582662 112.9 L 207.12666416255402 112.4 L 208.44500926684185 111.9 L 209.909837160495 111.4 L 211.52114784351346 110.9 L 213.2789413158972 110.4 L 215.47618315637692 109.9 L 218.4058389436832 109.4 L 230.41742767163896 109.9 L 232.6146695121187 110.4 L 234.37246298450245 110.9 L 235.9837736675209 111.4 L 237.44860156117403 111.9 L 238.76694666546186 112.4 L 240.0852917697497 112.9 L 241.40363687403752 113.5 L 242.57549918896004 114 L 243.74736150388253 114.5 L 244.91922381880505 115 L 246.09108613372754 115.6 L 247.2629484486501 116.1 L 248.4348107635726 116.7 L 249.6066730784951 117.2 L 250.77853539341763 117.8 L 251.95039770834012 118.4 L 253.12226002326267 118.9 L 254.29412233818513 119.4 L 255.46598465310768 120 L 256.63784696803015 120.5 L 257.8097092829527 121 L 258.9815715978752 121.5 L 260.29991670216305 122.1 L 261.61826180645085 122.6 L 262.9366069107387 123.1 L 264.2549520150265 123.6 L 265.7197799086797 124.2 L 267.1846078023328 124.7 L 268.79591848535125 125.2 L 270.553711957735 125.7 L 272.4579882194841 126.2 L 274.5087472705985 126.7 L 276.85247190044356 127.3 L 279.48916210901916 127.8 L 280.5145416345764 128.4 L 285.20199089426643 128.9 L 292.0866819944362 129.4 L 294.43040662428126 130 L 294.43040662428126 130 L 1.4648278936531185 130" fill="rgb(179,35,35)"></path><path  stroke-width="2" stroke="#B32323" d="M 1.4648278936531185 130 L 1.6113106830184323 128.5 L 4.248000891594086 127.7 L 6.152277153343168 126.7 L 7.763587836361622 126.2 L 8.496001783188193 125.5 L 9.814346887476018 124.9 L 10.986209202398532 124.4 L 12.011588727955731 123.4 L 12.890485464147615 122.4 L 13.7693822003395 121.8 L 14.50179614716607 121.3 L 15.23421009399264 120.8 L 15.966624040819209 120.2 L 16.69903798764578 119.6 L 17.43145193447235 119 L 18.017383091933606 118.5 L 18.603314249394863 118 L 19.189245406856116 117.5 L 19.775176564317377 116.9 L 20.36110772177863 116.3 L 20.94703887923989 115.7 L 21.240004457970517 114.9 L 21.82593561543177 114.3 L 22.265383983527716 113.8 L 22.704832351623654 113.3 L 23.1442807197196 112.7 L 23.583729087815538 112.2 L 24.02317745591148 111.7 L 24.462625824007425 111.1 L 24.902074192103367 110.5 L 25.34152256019931 110 L 25.780970928295254 109.4 L 26.220419296391192 108.7 L 26.659867664487134 108.1 L 27.09931603258308 107.5 L 27.538764400679018 106.9 L 27.978212768774963 106.2 L 28.4176611368709 105.5 L 28.857109504966846 104.9 L 29.29655787306279 104.2 L 29.73600624115873 103.5 L 30.175454609254672 102.8 L 30.614902977350617 102 L 31.054351345446552 101.3 L 31.347316924177186 100.8 L 31.64028250290781 100.3 L 31.933248081638443 99.8 L 32.22621366036907 99.3 L 32.51917923909969 98.8 L 32.81214481783032 98.3 L 33.10511039656095 97.7 L 33.398075975291576 97.2 L 33.691041554022206 96.7 L 33.984007132752836 95.7 L 34.27697271148346 95.1 L 34.56993829021409 94.6 L 34.86290386894471 94 L 35.15586944767535 93.4 L 35.44883502640597 92.8 L 35.7418006051366 92.3 L 36.03476618386723 91.7 L 36.32773176259786 91.1 L 36.62069734132849 90.5 L 36.91366292005911 89.9 L 37.20662849878975 89.3 L 37.49959407752037 88.7 L 37.792559656251 88.1 L 38.085525234981624 87.5 L 38.378490813712254 86.9 L 38.671456392442884 86.3 L 38.964421971173515 85.6 L 39.25738754990414 85 L 39.40387033926945 84.2 L 39.69683591800008 83.6 L 39.98980149673071 82.9 L 40.28276707546134 82.3 L 40.57573265419197 81.6 L 40.86869823292259 81 L 41.16166381165322 80.3 L 41.45462939038385 79.7 L 41.74759496911448 79 L 42.040560547845104 78.3 L 42.333526126575734 77.6 L 42.626491705306364 77 L 42.919457284036994 76.3 L 43.21242286276762 75.6 L 43.50538844149825 74.9 L 43.79835402022888 74.3 L 44.0913195989595 73.6 L 44.38428517769013 72.9 L 44.677250756420754 72.2 L 44.970216335151385 71.5 L 45.26318191388202 70.8 L 45.556147492612645 70.1 L 45.849113071343275 69.5 L 46.1420786500739 68.8 L 46.43504422880453 68.1 L 46.72800980753516 67.4 L 47.02097538626578 66.7 L 47.31394096499641 66 L 47.606906543727035 65.3 L 47.899872122457666 64.6 L 48.192837701188296 63.9 L 48.485803279918926 63.2 L 48.778768858649556 62.5 L 49.07173443738018 61.8 L 49.36470001611081 61.2 L 49.65766559484144 60.5 L 49.95063117357206 59.8 L 50.24359675230269 59.1 L 50.536562331033316 58.4 L 50.82952790976395 57.7 L 51.12249348849458 57 L 51.4154590672252 56.4 L 51.70842464595584 55.7 L 52.00139022468646 55 L 52.29435580341709 54.3 L 52.58732138214772 53.7 L 52.880286960878344 53 L 53.173252539608974 52.3 L 53.466218118339604 51.7 L 53.75918369707023 51 L 54.05214927580086 50.4 L 54.34511485453148 49.7 L 54.63808043326212 49.1 L 54.93104601199275 48.4 L 55.22401159072337 47.8 L 55.516977169454 47.2 L 55.809942748184625 46.6 L 56.102908326915255 45.9 L 56.395873905645885 45.3 L 56.68883948437651 44.7 L 56.98180506310714 44.1 L 57.27477064183776 43.5 L 57.56773622056839 42.9 L 57.86070179929903 42.3 L 58.15366737802965 41.7 L 58.44663295676028 41.1 L 58.73959853549091 40.6 L 59.032564114221536 40 L 59.32552969295216 39.5 L 59.61849527168279 38.9 L 59.91146085041343 38.4 L 60.20442642914404 37.8 L 60.497392007874666 37.3 L 60.7903575866053 36.8 L 61.08332316533593 36.3 L 61.37628874406657 35.8 L 61.66925432279719 35.3 L 62.108702690893125 34.5 L 62.54815105898908 33.8 L 62.987599427085016 33.1 L 63.427047795180954 32.4 L 63.866496163276906 31.8 L 64.30594453137284 31.1 L 64.74539289946878 30.5 L 65.18484126756474 29.9 L 65.62428963566067 29.4 L 66.06373800375661 28.8 L 66.50318637185256 28.3 L 66.94263473994849 27.8 L 67.52856589740976 27.1 L 68.11449705487101 26.5 L 68.70042821233227 26 L 69.28635936979353 25.4 L 70.0187733166201 24.9 L 70.75118726344667 24.3 L 71.63008399963854 23.8 L 72.80194631456106 23.3 L 74.70622257631015 22.7 L 78.80774067853893 23.3 L 79.97960299346146 23.8 L 80.85849972965333 24.3 L 81.5909136764799 24.8 L 82.32332762330648 25.4 L 82.90925878076773 25.9 L 83.49518993822899 26.4 L 84.08112109569024 27 L 84.6670522531515 27.6 L 85.25298341061276 28.3 L 85.69243177870871 28.8 L 86.13188014680465 29.3 L 86.57132851490059 29.9 L 87.01077688299652 30.5 L 87.45022525109246 31.1 L 87.8896736191884 31.7 L 88.32912198728435 32.3 L 88.76857035538029 32.9 L 89.20801872347623 33.6 L 89.64746709157218 34.3 L 90.08691545966812 35 L 90.52636382776406 35.7 L 90.96581219586001 36.4 L 91.40526056395595 37.1 L 91.69822614268656 37.6 L 91.99119172141721 38.2 L 92.28415730014784 38.7 L 92.57712287887846 39.2 L 92.87008845760909 39.7 L 93.16305403633972 40.2 L 93.45601961507035 40.8 L 93.74898519380096 41.3 L 94.0419507725316 41.9 L 94.33491635126222 42.4 L 94.62788192999285 43 L 94.92084750872348 43.5 L 95.21381308745411 44.1 L 95.50677866618474 44.7 L 95.79974424491537 45.2 L 96.092709823646 45.8 L 96.38567540237662 46.4 L 96.67864098110725 47 L 96.97160655983788 47.6 L 97.26457213856851 48.2 L 97.55753771729913 48.8 L 97.85050329602977 49.4 L 98.14346887476039 50 L 98.43643445349102 50.6 L 98.72940003222166 51.2 L 99.02236561095228 51.8 L 99.31533118968291 52.4 L 99.60829676841352 53 L 99.90126234714417 53.6 L 100.19422792587478 54.3 L 100.48719350460541 54.9 L 100.78015908333605 55.5 L 101.07312466206668 56.1 L 101.36609024079729 56.8 L 101.65905581952794 57.4 L 101.95202139825857 58 L 102.24498697698918 58.7 L 102.53795255571981 59.3 L 102.83091813445044 59.9 L 103.12388371318107 60.5 L 103.41684929191169 61.2 L 103.70981487064233 61.8 L 104.00278044937295 62.5 L 104.29574602810358 63.1 L 104.58871160683421 63.7 L 104.88167718556484 64.4 L 105.17464276429547 65 L 105.4676083430261 65.6 L 105.76057392175673 66.3 L 106.05353950048735 66.9 L 106.34650507921798 67.5 L 106.6394706579486 68.2 L 106.93243623667924 68.8 L 107.22540181540985 69.4 L 107.5183673941405 70.1 L 107.81133297287113 70.7 L 108.10429855160174 71.3 L 108.39726413033239 71.9 L 108.690229709063 72.6 L 108.98319528779363 73.2 L 109.27616086652425 73.8 L 109.5691264452549 74.4 L 109.86209202398551 75 L 110.15505760271614 75.7 L 110.44802318144677 76.3 L 110.7409887601774 76.9 L 111.03395433890803 77.5 L 111.32691991763866 78.1 L 111.61988549636929 78.7 L 111.91285107509991 79.3 L 112.20581665383054 79.9 L 112.49878223256117 80.5 L 112.7917478112918 81.1 L 113.08471339002242 81.7 L 113.37767896875306 82.3 L 113.67064454748368 82.9 L 113.9636101262143 83.4 L 114.25657570494495 84 L 114.54954128367557 84.6 L 114.8425068624062 85.2 L 115.13547244113683 85.7 L 115.42843801986746 86.3 L 115.72140359859809 86.9 L 116.01436917732872 87.4 L 116.30733475605933 88 L 116.60030033478996 88.5 L 116.89326591352058 89.1 L 117.18623149225121 89.6 L 117.47919707098184 90.2 L 117.77216264971247 90.7 L 118.06512822844311 91.2 L 118.35809380717374 91.8 L 118.65105938590438 92.3 L 118.94402496463498 92.8 L 119.23699054336562 93.3 L 119.52995612209622 93.9 L 119.82292170082685 94.4 L 120.1158872795575 94.9 L 120.40885285828813 95.4 L 120.70181843701876 95.9 L 120.99478401574939 96.4 L 121.43423238384533 97.1 L 121.87368075194127 97.8 L 122.31312912003722 98.5 L 122.75257748813314 99.2 L 123.1920258562291 99.9 L 123.63147422432505 100.6 L 124.07092259242097 101.3 L 124.51037096051692 102 L 124.94981932861288 102.6 L 125.3892676967088 103.3 L 125.82871606480475 103.9 L 126.2681644329007 104.5 L 126.70761280099663 105.1 L 127.14706116909258 105.8 L 127.58650953718853 106.4 L 128.02595790528446 106.9 L 128.4654062733804 107.5 L 128.90485464147633 108.1 L 129.3443030095723 108.6 L 129.7837513776682 109.2 L 130.22319974576413 109.7 L 130.51616532449478 111.5 L 131.10209648195604 112.1 L 131.6880276394173 112.7 L 132.27395879687856 113.3 L 132.8598899543398 113.9 L 133.29933832243574 114.8 L 133.885269479897 115.3 L 134.47120063735827 115.8 L 135.05713179481953 116.8 L 135.7895457416461 117.4 L 136.52195968847266 117.9 L 137.25437363529923 118.5 L 137.54733921402988 119.1 L 138.42623595022175 119.7 L 139.30513268641363 120.3 L 140.1840294226055 120.8 L 141.06292615879738 121.8 L 141.94182289498926 122.7 L 143.11368520991178 123.3 L 144.28554752483433 123.8 L 145.60389262912213 124.3 L 146.92223773340996 124.8 L 148.3870656270631 125.3 L 149.99837631008154 125.9 L 150.14485909944688 126.4 L 155.27175672723286 126.9 L 160.8381027231148 127.4 L 163.0353445635945 127.9 L 165.52555198280484 127.3 L 171.23838076805208 126.8 L 173.28913981916648 126.3 L 175.19341608091557 125.7 L 176.95120955329932 125.2 L 178.5625202363178 124.7 L 180.02734812997093 124.2 L 181.49217602362407 123.7 L 182.95700391727723 123.1 L 184.27534902156503 122.6 L 185.59369412585286 122.1 L 186.9120392301407 121.5 L 188.0839015450632 121 L 189.25576385998573 120.5 L 190.42762617490823 120 L 191.59948848983075 119.5 L 192.77135080475324 118.9 L 193.94321311967576 118.4 L 195.11507543459828 117.8 L 196.28693774952077 117.3 L 197.4588000644433 116.7 L 198.63066237936582 116.1 L 199.80252469428834 115.6 L 200.97438700921086 115.1 L 202.14624932413335 114.5 L 203.31811163905587 114 L 204.48997395397836 113.5 L 205.8083190582662 112.9 L 207.12666416255402 112.4 L 208.44500926684185 111.9 L 209.909837160495 111.4 L 211.52114784351346 110.9 L 213.2789413158972 110.4 L 215.47618315637692 109.9 L 218.4058389436832 109.4 L 230.41742767163896 109.9 L 232.6146695121187 110.4 L 234.37246298450245 110.9 L 235.9837736675209 111.4 L 237.44860156117403 111.9 L 238.76694666546186 112.4 L 240.0852917697497 112.9 L 241.40363687403752 113.5 L 242.57549918896004 114 L 243.74736150388253 114.5 L 244.91922381880505 115 L 246.09108613372754 115.6 L 247.2629484486501 116.1 L 248.4348107635726 116.7 L 249.6066730784951 117.2 L 250.77853539341763 117.8 L 251.95039770834012 118.4 L 253.12226002326267 118.9 L 254.29412233818513 119.4 L 255.46598465310768 120 L 256.63784696803015 120.5 L 257.8097092829527 121 L 258.9815715978752 121.5 L 260.29991670216305 122.1 L 261.61826180645085 122.6 L 262.9366069107387 123.1 L 264.2549520150265 123.6 L 265.7197799086797 124.2 L 267.1846078023328 124.7 L 268.79591848535125 125.2 L 270.553711957735 125.7 L 272.4579882194841 126.2 L 274.5087472705985 126.7 L 276.85247190044356 127.3 L 279.48916210901916 127.8 L 280.5145416345764 128.4 L 285.20199089426643 128.9 L 292.0866819944362 129.4 L 294.43040662428126 130" fill="none"></path></g><g clip-path="none" height="300" width="260" transform="translate(290,345) rotate(90) scale(-1,1) scale(1 1)"  visibility="visible" class="highcharts-markers"></g><g clip-path="url(#highcharts-56)" height="300" width="260" transform="translate(290,345) rotate(90) scale(-1,1) scale(1 1)"  visibility="visible" class="highcharts-series"><rect ry="0" rx="0" height="0" width="1" y="130" x="2" fill="#00688B"></rect><rect ry="0" rx="0" height="0" width="1" y="130" x="5" fill="#00688B"></rect><rect ry="0" rx="0" height="0" width="1" y="130" x="8" fill="#00688B"></rect><rect ry="0" rx="0" height="0" width="1" y="130" x="11" fill="#00688B"></rect><rect ry="0" rx="0" height="0" width="1" y="130" x="14" fill="#00688B"></rect><rect ry="0" rx="0" height="0" width="1" y="130" x="17" fill="#00688B"></rect><rect ry="0" rx="0" height="0" width="1" y="130" x="20" fill="#00688B"></rect><rect ry="0" rx="0" height="0" width="1" y="130" x="22" fill="#00688B"></rect><rect ry="0" rx="0" height="0" width="1" y="130" x="25" fill="#00688B"></rect><rect ry="0" rx="0" height="0" width="1" y="130" x="28" fill="#00688B"></rect><rect ry="0" rx="0" height="0" width="1" y="130" x="31" fill="#00688B"></rect><rect ry="0" rx="0" height="0" width="1" y="130" x="34" fill="#00688B"></rect><rect ry="0" rx="0" height="0" width="1" y="130" x="37" fill="#00688B"></rect><rect ry="0" rx="0" height="0" width="1" y="130" x="40" fill="#00688B"></rect><rect ry="0" rx="0" height="0" width="1" y="130" x="43" fill="#00688B"></rect><rect ry="0" rx="0" height="0" width="1" y="130" x="46" fill="#00688B"></rect><rect ry="0" rx="0" height="0" width="1" y="130" x="49" fill="#00688B"></rect><rect ry="0" rx="0" height="0" width="1" y="130" x="52" fill="#00688B"></rect><rect ry="0" rx="0" height="0" width="1" y="130" x="55" fill="#00688B"></rect><rect ry="0" rx="0" height="0" width="1" y="130" x="58" fill="#00688B"></rect><rect ry="0" rx="0" height="0" width="1" y="130" x="61" fill="#00688B"></rect><rect ry="0" rx="0" height="0" width="1" y="130" x="63" fill="#00688B"></rect><rect ry="0" rx="0" height="0" width="1" y="33" x="66" fill="#00688B"></rect><rect ry="0" rx="0" height="0" width="1" y="98" x="69" fill="#00688B"></rect><rect ry="0" rx="0" height="0" width="1" y="65" x="72" fill="#00688B"></rect><rect ry="0" rx="0" height="0" width="1" y="130" x="75" fill="#00688B"></rect><rect ry="0" rx="0" height="0" width="1" y="65" x="78" fill="#00688B"></rect><rect ry="0" rx="0" height="33" width="1" y="130" x="81" fill="#00688B"></rect><rect ry="0" rx="0" height="0" width="1" y="130" x="84" fill="#00688B"></rect><rect ry="0" rx="0" height="0" width="1" y="98" x="87" fill="#00688B"></rect><rect ry="0" rx="0" height="0" width="1" y="130" x="90" fill="#00688B"></rect><rect ry="0" rx="0" height="0" width="1" y="130" x="93" fill="#00688B"></rect><rect ry="0" rx="0" height="0" width="1" y="130" x="96" fill="#00688B"></rect><rect ry="0" rx="0" height="0" width="1" y="98" x="99" fill="#00688B"></rect><rect ry="0" rx="0" height="0" width="1" y="130" x="102" fill="#00688B"></rect><rect ry="0" rx="0" height="0" width="1" y="98" x="104" fill="#00688B"></rect><rect ry="0" rx="0" height="0" width="1" y="130" x="107" fill="#00688B"></rect><rect ry="0" rx="0" height="0" width="1" y="130" x="110" fill="#00688B"></rect><rect ry="0" rx="0" height="0" width="1" y="130" x="113" fill="#00688B"></rect><rect ry="0" rx="0" height="0" width="1" y="130" x="116" fill="#00688B"></rect><rect ry="0" rx="0" height="0" width="1" y="130" x="119" fill="#00688B"></rect><rect ry="0" rx="0" height="0" width="1" y="130" x="122" fill="#00688B"></rect><rect ry="0" rx="0" height="0" width="1" y="130" x="125" fill="#00688B"></rect><rect ry="0" rx="0" height="65" width="1" y="130" x="128" fill="#00688B"></rect><rect ry="0" rx="0" height="33" width="1" y="130" x="131" fill="#00688B"></rect><rect ry="0" rx="0" height="0" width="1" y="130" x="134" fill="#00688B"></rect><rect ry="0" rx="0" height="65" width="1" y="130" x="137" fill="#00688B"></rect><rect ry="0" rx="0" height="0" width="1" y="130" x="140" fill="#00688B"></rect><rect ry="0" rx="0" height="0" width="1" y="130" x="143" fill="#00688B"></rect><rect ry="0" rx="0" height="0" width="1" y="130" x="145" fill="#00688B"></rect><rect ry="0" rx="0" height="0" width="1" y="130" x="148" fill="#00688B"></rect><rect ry="0" rx="0" height="33" width="1" y="130" x="151" fill="#00688B"></rect><rect ry="0" rx="0" height="0" width="1" y="130" x="154" fill="#00688B"></rect><rect ry="0" rx="0" height="0" width="1" y="130" x="157" fill="#00688B"></rect><rect ry="0" rx="0" height="0" width="1" y="130" x="160" fill="#00688B"></rect><rect ry="0" rx="0" height="0" width="1" y="130" x="163" fill="#00688B"></rect><rect ry="0" rx="0" height="0" width="1" y="130" x="166" fill="#00688B"></rect><rect ry="0" rx="0" height="0" width="1" y="130" x="169" fill="#00688B"></rect><rect ry="0" rx="0" height="0" width="1" y="130" x="172" fill="#00688B"></rect><rect ry="0" rx="0" height="0" width="1" y="130" x="175" fill="#00688B"></rect><rect ry="0" rx="0" height="0" width="1" y="130" x="178" fill="#00688B"></rect><rect ry="0" rx="0" height="0" width="1" y="130" x="181" fill="#00688B"></rect><rect ry="0" rx="0" height="0" width="1" y="130" x="184" fill="#00688B"></rect><rect ry="0" rx="0" height="0" width="1" y="130" x="186" fill="#00688B"></rect><rect ry="0" rx="0" height="0" width="1" y="130" x="189" fill="#00688B"></rect><rect ry="0" rx="0" height="0" width="1" y="130" x="192" fill="#00688B"></rect><rect ry="0" rx="0" height="0" width="1" y="130" x="195" fill="#00688B"></rect><rect ry="0" rx="0" height="0" width="1" y="130" x="198" fill="#00688B"></rect><rect ry="0" rx="0" height="0" width="1" y="130" x="201" fill="#00688B"></rect><rect ry="0" rx="0" height="0" width="1" y="130" x="204" fill="#00688B"></rect><rect ry="0" rx="0" height="0" width="1" y="130" x="207" fill="#00688B"></rect><rect ry="0" rx="0" height="0" width="1" y="130" x="210" fill="#00688B"></rect><rect ry="0" rx="0" height="0" width="1" y="130" x="213" fill="#00688B"></rect><rect ry="0" rx="0" height="0" width="1" y="98" x="216" fill="#00688B"></rect><rect ry="0" rx="0" height="0" width="1" y="130" x="219" fill="#00688B"></rect><rect ry="0" rx="0" height="0" width="1" y="130" x="222" fill="#00688B"></rect><rect ry="0" rx="0" height="0" width="1" y="130" x="225" fill="#00688B"></rect><rect ry="0" rx="0" height="0" width="1" y="130" x="228" fill="#00688B"></rect><rect ry="0" rx="0" height="0" width="1" y="98" x="230" fill="#00688B"></rect><rect ry="0" rx="0" height="0" width="1" y="130" x="233" fill="#00688B"></rect><rect ry="0" rx="0" height="0" width="1" y="130" x="236" fill="#00688B"></rect><rect ry="0" rx="0" height="0" width="1" y="130" x="239" fill="#00688B"></rect><rect ry="0" rx="0" height="0" width="1" y="130" x="242" fill="#00688B"></rect><rect ry="0" rx="0" height="0" width="1" y="130" x="245" fill="#00688B"></rect><rect ry="0" rx="0" height="0" width="1" y="130" x="248" fill="#00688B"></rect><rect ry="0" rx="0" height="0" width="1" y="130" x="251" fill="#00688B"></rect><rect ry="0" rx="0" height="0" width="1" y="130" x="254" fill="#00688B"></rect><rect ry="0" rx="0" height="0" width="1" y="130" x="257" fill="#00688B"></rect><rect ry="0" rx="0" height="0" width="1" y="130" x="260" fill="#00688B"></rect><rect ry="0" rx="0" height="0" width="1" y="130" x="263" fill="#00688B"></rect><rect ry="0" rx="0" height="0" width="1" y="130" x="266" fill="#00688B"></rect><rect ry="0" rx="0" height="0" width="1" y="130" x="269" fill="#00688B"></rect><rect ry="0" rx="0" height="0" width="1" y="130" x="271" fill="#00688B"></rect><rect ry="0" rx="0" height="0" width="1" y="130" x="274" fill="#00688B"></rect><rect ry="0" rx="0" height="0" width="1" y="130" x="277" fill="#00688B"></rect><rect ry="0" rx="0" height="0" width="1" y="130" x="280" fill="#00688B"></rect><rect ry="0" rx="0" height="0" width="1" y="130" x="283" fill="#00688B"></rect><rect ry="0" rx="0" height="0" width="1" y="130" x="286" fill="#00688B"></rect><rect ry="0" rx="0" height="0" width="1" y="130" x="289" fill="#00688B"></rect><rect ry="0" rx="0" height="0" width="1" y="130" x="292" fill="#00688B"></rect></g><g clip-path="none" height="300" width="260" transform="translate(290,345) rotate(90) scale(-1,1) scale(1 1)"  visibility="visible" class="highcharts-markers"></g><g clip-path="url(#highcharts-56)" height="300" width="260" transform="translate(290,345) rotate(90) scale(-1,1) scale(1 1)"  visibility="visible" class="highcharts-series"><rect ry="0" rx="0" height="0" width="1" y="130" x="2" fill="#B22222"></rect><rect ry="0" rx="0" height="0" width="1" y="130" x="5" fill="#B22222"></rect><rect ry="0" rx="0" height="0" width="1" y="130" x="8" fill="#B22222"></rect><rect ry="0" rx="0" height="0" width="1" y="130" x="11" fill="#B22222"></rect><rect ry="0" rx="0" height="0" width="1" y="130" x="14" fill="#B22222"></rect><rect ry="0" rx="0" height="0" width="1" y="130" x="17" fill="#B22222"></rect><rect ry="0" rx="0" height="0" width="1" y="130" x="20" fill="#B22222"></rect><rect ry="0" rx="0" height="0" width="1" y="130" x="22" fill="#B22222"></rect><rect ry="0" rx="0" height="0" width="1" y="130" x="25" fill="#B22222"></rect><rect ry="0" rx="0" height="0" width="1" y="130" x="28" fill="#B22222"></rect><rect ry="0" rx="0" height="0" width="1" y="130" x="31" fill="#B22222"></rect><rect ry="0" rx="0" height="0" width="1" y="130" x="34" fill="#B22222"></rect><rect ry="0" rx="0" height="0" width="1" y="130" x="37" fill="#B22222"></rect><rect ry="0" rx="0" height="0" width="1" y="130" x="40" fill="#B22222"></rect><rect ry="0" rx="0" height="0" width="1" y="130" x="43" fill="#B22222"></rect><rect ry="0" rx="0" height="0" width="1" y="130" x="46" fill="#B22222"></rect><rect ry="0" rx="0" height="0" width="1" y="130" x="49" fill="#B22222"></rect><rect ry="0" rx="0" height="0" width="1" y="130" x="52" fill="#B22222"></rect><rect ry="0" rx="0" height="0" width="1" y="130" x="55" fill="#B22222"></rect><rect ry="0" rx="0" height="0" width="1" y="130" x="58" fill="#B22222"></rect><rect ry="0" rx="0" height="0" width="1" y="130" x="61" fill="#B22222"></rect><rect ry="0" rx="0" height="0" width="1" y="130" x="63" fill="#B22222"></rect><rect ry="0" rx="0" height="97" width="1" y="33" x="66" fill="#B22222"></rect><rect ry="0" rx="0" height="32" width="1" y="98" x="69" fill="#B22222"></rect><rect ry="0" rx="0" height="65" width="1" y="65" x="72" fill="#B22222"></rect><rect ry="0" rx="0" height="0" width="1" y="130" x="75" fill="#B22222"></rect><rect ry="0" rx="0" height="65" width="1" y="65" x="78" fill="#B22222"></rect><rect ry="0" rx="0" height="0" width="1" y="130" x="81" fill="#B22222"></rect><rect ry="0" rx="0" height="0" width="1" y="130" x="84" fill="#B22222"></rect><rect ry="0" rx="0" height="32" width="1" y="98" x="87" fill="#B22222"></rect><rect ry="0" rx="0" height="0" width="1" y="130" x="90" fill="#B22222"></rect><rect ry="0" rx="0" height="0" width="1" y="130" x="93" fill="#B22222"></rect><rect ry="0" rx="0" height="0" width="1" y="130" x="96" fill="#B22222"></rect><rect ry="0" rx="0" height="32" width="1" y="98" x="99" fill="#B22222"></rect><rect ry="0" rx="0" height="0" width="1" y="130" x="102" fill="#B22222"></rect><rect ry="0" rx="0" height="32" width="1" y="98" x="104" fill="#B22222"></rect><rect ry="0" rx="0" height="0" width="1" y="130" x="107" fill="#B22222"></rect><rect ry="0" rx="0" height="0" width="1" y="130" x="110" fill="#B22222"></rect><rect ry="0" rx="0" height="0" width="1" y="130" x="113" fill="#B22222"></rect><rect ry="0" rx="0" height="0" width="1" y="130" x="116" fill="#B22222"></rect><rect ry="0" rx="0" height="0" width="1" y="130" x="119" fill="#B22222"></rect><rect ry="0" rx="0" height="0" width="1" y="130" x="122" fill="#B22222"></rect><rect ry="0" rx="0" height="0" width="1" y="130" x="125" fill="#B22222"></rect><rect ry="0" rx="0" height="0" width="1" y="130" x="128" fill="#B22222"></rect><rect ry="0" rx="0" height="0" width="1" y="130" x="131" fill="#B22222"></rect><rect ry="0" rx="0" height="0" width="1" y="130" x="134" fill="#B22222"></rect><rect ry="0" rx="0" height="0" width="1" y="130" x="137" fill="#B22222"></rect><rect ry="0" rx="0" height="0" width="1" y="130" x="140" fill="#B22222"></rect><rect ry="0" rx="0" height="0" width="1" y="130" x="143" fill="#B22222"></rect><rect ry="0" rx="0" height="0" width="1" y="130" x="145" fill="#B22222"></rect><rect ry="0" rx="0" height="0" width="1" y="130" x="148" fill="#B22222"></rect><rect ry="0" rx="0" height="0" width="1" y="130" x="151" fill="#B22222"></rect><rect ry="0" rx="0" height="0" width="1" y="130" x="154" fill="#B22222"></rect><rect ry="0" rx="0" height="0" width="1" y="130" x="157" fill="#B22222"></rect><rect ry="0" rx="0" height="0" width="1" y="130" x="160" fill="#B22222"></rect><rect ry="0" rx="0" height="0" width="1" y="130" x="163" fill="#B22222"></rect><rect ry="0" rx="0" height="0" width="1" y="130" x="166" fill="#B22222"></rect><rect ry="0" rx="0" height="0" width="1" y="130" x="169" fill="#B22222"></rect><rect ry="0" rx="0" height="0" width="1" y="130" x="172" fill="#B22222"></rect><rect ry="0" rx="0" height="0" width="1" y="130" x="175" fill="#B22222"></rect><rect ry="0" rx="0" height="0" width="1" y="130" x="178" fill="#B22222"></rect><rect ry="0" rx="0" height="0" width="1" y="130" x="181" fill="#B22222"></rect><rect ry="0" rx="0" height="0" width="1" y="130" x="184" fill="#B22222"></rect><rect ry="0" rx="0" height="0" width="1" y="130" x="186" fill="#B22222"></rect><rect ry="0" rx="0" height="0" width="1" y="130" x="189" fill="#B22222"></rect><rect ry="0" rx="0" height="0" width="1" y="130" x="192" fill="#B22222"></rect><rect ry="0" rx="0" height="0" width="1" y="130" x="195" fill="#B22222"></rect><rect ry="0" rx="0" height="0" width="1" y="130" x="198" fill="#B22222"></rect><rect ry="0" rx="0" height="0" width="1" y="130" x="201" fill="#B22222"></rect><rect ry="0" rx="0" height="0" width="1" y="130" x="204" fill="#B22222"></rect><rect ry="0" rx="0" height="0" width="1" y="130" x="207" fill="#B22222"></rect><rect ry="0" rx="0" height="0" width="1" y="130" x="210" fill="#B22222"></rect><rect ry="0" rx="0" height="0" width="1" y="130" x="213" fill="#B22222"></rect><rect ry="0" rx="0" height="32" width="1" y="98" x="216" fill="#B22222"></rect><rect ry="0" rx="0" height="0" width="1" y="130" x="219" fill="#B22222"></rect><rect ry="0" rx="0" height="0" width="1" y="130" x="222" fill="#B22222"></rect><rect ry="0" rx="0" height="0" width="1" y="130" x="225" fill="#B22222"></rect><rect ry="0" rx="0" height="0" width="1" y="130" x="228" fill="#B22222"></rect><rect ry="0" rx="0" height="32" width="1" y="98" x="230" fill="#B22222"></rect><rect ry="0" rx="0" height="0" width="1" y="130" x="233" fill="#B22222"></rect><rect ry="0" rx="0" height="0" width="1" y="130" x="236" fill="#B22222"></rect><rect ry="0" rx="0" height="0" width="1" y="130" x="239" fill="#B22222"></rect><rect ry="0" rx="0" height="0" width="1" y="130" x="242" fill="#B22222"></rect><rect ry="0" rx="0" height="0" width="1" y="130" x="245" fill="#B22222"></rect><rect ry="0" rx="0" height="0" width="1" y="130" x="248" fill="#B22222"></rect><rect ry="0" rx="0" height="0" width="1" y="130" x="251" fill="#B22222"></rect><rect ry="0" rx="0" height="0" width="1" y="130" x="254" fill="#B22222"></rect><rect ry="0" rx="0" height="0" width="1" y="130" x="257" fill="#B22222"></rect><rect ry="0" rx="0" height="0" width="1" y="130" x="260" fill="#B22222"></rect><rect ry="0" rx="0" height="0" width="1" y="130" x="263" fill="#B22222"></rect><rect ry="0" rx="0" height="0" width="1" y="130" x="266" fill="#B22222"></rect><rect ry="0" rx="0" height="0" width="1" y="130" x="269" fill="#B22222"></rect><rect ry="0" rx="0" height="0" width="1" y="130" x="271" fill="#B22222"></rect><rect ry="0" rx="0" height="0" width="1" y="130" x="274" fill="#B22222"></rect><rect ry="0" rx="0" height="0" width="1" y="130" x="277" fill="#B22222"></rect><rect ry="0" rx="0" height="0" width="1" y="130" x="280" fill="#B22222"></rect><rect ry="0" rx="0" height="0" width="1" y="130" x="283" fill="#B22222"></rect><rect ry="0" rx="0" height="0" width="1" y="130" x="286" fill="#B22222"></rect><rect ry="0" rx="0" height="0" width="1" y="130" x="289" fill="#B22222"></rect><rect ry="0" rx="0" height="0" width="1" y="130" x="292" fill="#B22222"></rect></g><g clip-path="none" height="300" width="260" transform="translate(290,345) rotate(90) scale(-1,1) scale(1 1)"  visibility="visible" class="highcharts-markers"></g></g><text  class="highcharts-title" text-anchor="middle" style="font-family:'lucida grande', 'lucida sans unicode', verdana, arial, helvetica, sans-serif;font-size:16px;color:#274b6d;fill:#274b6d;" y="25" x="150"><tspan x="150">Beanplot</tspan></text><text  class="highcharts-subtitle" text-anchor="middle" style="font-family:'lucida grande', 'lucida sans unicode', verdana, arial, helvetica, sans-serif;font-size:10px;color:#4d759e;fill:#4d759e;" y="40" x="150"><tspan x="150">T-test p-value: 0.14</tspan></text><g transform="translate(20,365)"  class="highcharts-legend"><rect visibility="visible" stroke-width="1" stroke="#909090" height="24" width="259" y="0.5" x="0.5" fill="none" ry="5" rx="5"></rect><g clip-path="url(#highcharts-55)" ><g><g transform="translate(8,3)"  class="highcharts-legend-item"><text  text-anchor="start" style="font-family:'lucida grande', 'lucida sans unicode', verdana, arial, helvetica, sans-serif;font-size:12px;cursor:pointer;color:#274b6d;fill:#274b6d;" y="15" x="21"><tspan x="21">Early CaptiveSpray</tspan></text><rect  height="12" width="16" y="4" x="0" fill="#01698C" ry="4" rx="4"></rect></g><g transform="translate(142,3)"  class="highcharts-legend-item"><text  text-anchor="start" style="font-family:'lucida grande', 'lucida sans unicode', verdana, arial, helvetica, sans-serif;font-size:12px;cursor:pointer;color:#274b6d;fill:#274b6d;" y="15" x="21"><tspan x="21">Late NanoSpray</tspan></text><rect  height="12" width="16" y="4" x="0" fill="#B32323" ry="4" rx="4"></rect></g></g></g></g><g  class="highcharts-axis-labels"><text opacity="1" text-anchor="end" style="font-family:'lucida grande', 'lucida sans unicode', verdana, arial, helvetica, sans-serif;font-size:11px;width:110px;color:#666;cursor:default;line-height:14px;fill:#666;" y="337.22939282253725" x="22"><tspan x="22">0</tspan></text><text opacity="1" text-anchor="end" style="font-family:'lucida grande', 'lucida sans unicode', verdana, arial, helvetica, sans-serif;font-size:11px;width:110px;color:#666;cursor:default;line-height:14px;fill:#666;" y="266.0632515903162" x="22"><tspan x="22">5</tspan></text><text opacity="1" text-anchor="end" style="font-family:'lucida grande', 'lucida sans unicode', verdana, arial, helvetica, sans-serif;font-size:11px;width:110px;color:#666;cursor:default;line-height:14px;fill:#666;" y="194.8971103580952" x="22"><tspan x="22">10</tspan></text><text opacity="1" text-anchor="end" style="font-family:'lucida grande', 'lucida sans unicode', verdana, arial, helvetica, sans-serif;font-size:11px;width:110px;color:#666;cursor:default;line-height:14px;fill:#666;" y="123.73096912587417" x="22"><tspan x="22">15</tspan></text><text opacity="1" text-anchor="end" style="font-family:'lucida grande', 'lucida sans unicode', verdana, arial, helvetica, sans-serif;font-size:11px;width:110px;color:#666;cursor:default;line-height:14px;fill:#666;" y="52.56482789365314" x="22"><tspan x="22">20</tspan></text></g><g  class="highcharts-axis-labels"><text opacity="1" text-anchor="middle" style="font-family:'lucida grande', 'lucida sans unicode', verdana, arial, helvetica, sans-serif;font-size:11px;color:#666;cursor:default;line-height:14px;fill:#666;" y="359" x="30"><tspan x="30">4</tspan></text><text opacity="1" text-anchor="middle" style="font-family:'lucida grande', 'lucida sans unicode', verdana, arial, helvetica, sans-serif;font-size:11px;color:#666;cursor:default;line-height:14px;fill:#666;" y="359" x="95"><tspan x="95">2</tspan></text><text opacity="1" text-anchor="middle" style="font-family:'lucida grande', 'lucida sans unicode', verdana, arial, helvetica, sans-serif;font-size:11px;color:#666;cursor:default;line-height:14px;fill:#666;" y="359" x="160"><tspan x="160">0</tspan></text><text opacity="1" text-anchor="middle" style="font-family:'lucida grande', 'lucida sans unicode', verdana, arial, helvetica, sans-serif;font-size:11px;color:#666;cursor:default;line-height:14px;fill:#666;" y="359" x="225"><tspan x="225">2</tspan></text><text opacity="1" text-anchor="middle" style="font-family:'lucida grande', 'lucida sans unicode', verdana, arial, helvetica, sans-serif;font-size:11px;color:#666;cursor:default;line-height:14px;fill:#666;" y="359" x="290"><tspan x="290">4</tspan></text></g><g visibility="hidden" style="cursor:default;padding:0;white-space:nowrap;"  class="highcharts-tooltip"><rect transform="translate(1, 1)" stroke-width="5" stroke-opacity="0.049999999999999996" stroke="black"  fill-opacity="0.85" height="16" width="16" y="0.5" x="0.5" fill="none" ry="3" rx="3"></rect><rect transform="translate(1, 1)" stroke-width="3" stroke-opacity="0.09999999999999999" stroke="black"  fill-opacity="0.85" height="16" width="16" y="0.5" x="0.5" fill="none" ry="3" rx="3"></rect><rect transform="translate(1, 1)" stroke-width="1" stroke-opacity="0.15" stroke="black"  fill-opacity="0.85" height="16" width="16" y="0.5" x="0.5" fill="none" ry="3" rx="3"></rect><rect fill-opacity="0.85" height="16" width="16" y="0.5" x="0.5" fill="rgb(255,255,255)" ry="3" rx="3"></rect><text  style="font-family:'lucida grande', 'lucida sans unicode', verdana, arial, helvetica, sans-serif;font-size:12px;color:#333333;fill:#333333;" y="21" x="8"></text></g></svg>