<svg xmlns:xlink="http://www.w3.org/1999/xlink" height="400" width="300" version="1.1" xmlns="http://www.w3.org/2000/svg"><desc>Created with Highcharts 3.0.1</desc><defs><clipPath id="highcharts-21"><rect height="400" width="9999" y="0" x="0" fill="none" ry="0" rx="0"></rect></clipPath><clipPath id="highcharts-22"><rect height="253" width="300" y="0" x="0" fill="none"></rect></clipPath></defs><rect height="400" width="300" y="0" x="0" fill="#FFFFFF" ry="0" rx="0"></rect><g  class="highcharts-grid"><path opacity="1"  stroke-width="1" stroke="#C0C0C0" d="M 36 237.5 L 290 237.5" fill="none"></path><path opacity="1"  stroke-width="1" stroke="#C0C0C0" d="M 36 174.5 L 290 174.5" fill="none"></path><path opacity="1"  stroke-width="1" stroke="#C0C0C0" d="M 36 110.5 L 290 110.5" fill="none"></path><path opacity="1"  stroke-width="1" stroke="#C0C0C0" d="M 36 46.5 L 290 46.5" fill="none"></path><path opacity="1"  stroke-width="1" stroke="#C0C0C0" d="M 36 301.5 L 290 301.5" fill="none"></path></g><g  class="highcharts-grid"><path opacity="1"  stroke-width="1" stroke="#C0C0C0" d="M 77.5 45 L 77.5 345" fill="none"></path><path opacity="1"  stroke-width="1" stroke="#C0C0C0" d="M 120.5 45 L 120.5 345" fill="none"></path><path opacity="1"  stroke-width="1" stroke="#C0C0C0" d="M 162.5 45 L 162.5 345" fill="none"></path><path opacity="1"  stroke-width="1" stroke="#C0C0C0" d="M 204.5 45 L 204.5 345" fill="none"></path><path opacity="1"  stroke-width="1" stroke="#C0C0C0" d="M 247.5 45 L 247.5 345" fill="none"></path><path opacity="1"  stroke-width="1" stroke="#C0C0C0" d="M 289.5 45 L 289.5 345" fill="none"></path><path opacity="1"  stroke-width="1" stroke="#C0C0C0" d="M 36.5 45 L 36.5 345" fill="none"></path></g><g  class="highcharts-axis"><path opacity="1" stroke-width="1" stroke="#C0D0E0" d="M 36 237.5 L 31 237.5" fill="none"></path><path opacity="1" stroke-width="1" stroke="#C0D0E0" d="M 36 174.5 L 31 174.5" fill="none"></path><path opacity="1" stroke-width="1" stroke="#C0D0E0" d="M 36 110.5 L 31 110.5" fill="none"></path><path opacity="1" stroke-width="1" stroke="#C0D0E0" d="M 36 46.5 L 31 46.5" fill="none"></path><path opacity="1" stroke-width="1" stroke="#C0D0E0" d="M 36 301.5 L 31 301.5" fill="none"></path><path visibility="visible"  stroke-width="1" stroke="#C0D0E0" d="M 36.5 45 L 36.5 345" fill="none"></path></g><g  class="highcharts-axis"></g><g  class="highcharts-series-group"><g clip-path="url(#highcharts-22)" height="300" width="254" transform="translate(290,345) rotate(90) scale(-1,1) scale(1 1)"  visibility="visible" class="highcharts-series"><path  fill-opacity="0.75" d="M 69.83389001736673 127 L 94.20572920324878 134.7 L 109.03193137466039 142.4 L 167.82899341060087 150.1 L 172.09406526813024 157.8 L 176.3591371256596 165.7 L 179.71026501371836 173.4 L 182.959843571836 181.3 L 186.10787280001242 189.1 L 189.25590202818887 196.8 L 192.60702991624765 204.6 L 196.36435512407115 212.3 L 201.23872296124756 220.1 L 222.0563355991885 212.4 L 225.71211147707078 204.7 L 228.9616900351884 197 L 232.10971926336484 189.1 L 235.15619916160009 181.3 L 238.3042283897765 173.3 L 241.55380694789415 165.6 L 245.0064841658941 157.2 L 249.27155602342347 149.5 L 254.14592386059988 141.7 L 272.9325498997173 127 L 272.9325498997173 127 L 69.83389001736673 127" fill="rgb(1,105,140)"></path><path  stroke-width="2" stroke="#01698C" d="M 69.83389001736673 127 L 94.20572920324878 134.7 L 109.03193137466039 142.4 L 167.82899341060087 150.1 L 172.09406526813024 157.8 L 176.3591371256596 165.7 L 179.71026501371836 173.4 L 182.959843571836 181.3 L 186.10787280001242 189.1 L 189.25590202818887 196.8 L 192.60702991624765 204.6 L 196.36435512407115 212.3 L 201.23872296124756 220.1 L 222.0563355991885 212.4 L 225.71211147707078 204.7 L 228.9616900351884 197 L 232.10971926336484 189.1 L 235.15619916160009 181.3 L 238.3042283897765 173.3 L 241.55380694789415 165.6 L 245.0064841658941 157.2 L 249.27155602342347 149.5 L 254.14592386059988 141.7 L 272.9325498997173 127" fill="none"></path></g><g clip-path="none" height="300" width="254" transform="translate(290,345) rotate(90) scale(-1,1) scale(1 1)"  visibility="visible" class="highcharts-markers"></g><g clip-path="url(#highcharts-22)" height="300" width="254" transform="translate(290,345) rotate(90) scale(-1,1) scale(1 1)"  visibility="visible" class="highcharts-series"><path  fill-opacity="0.75" d="M 1.3578733825856477 127 L 9.259645786192499 121.6 L 15.207216412563252 116.2 L 19.79534232433497 110.8 L 23.448849994819856 105.3 L 26.592565897330118 99.8 L 29.39642062119061 94.3 L 31.43558769308915 88.8 L 33.81461594363745 83.3 L 36.10867889952331 77.7 L 38.317776560746736 72.3 L 40.526874221970154 66.8 L 42.82093717785601 61.3 L 44.945069544416995 55.8 L 47.409063089627736 50.3 L 50.127952518825786 44.8 L 53.44159901066092 39.3 L 58.284620806419966 33.9 L 85.47351509840054 39.3 L 96.43403810985521 44.7 L 106.29001229069816 50.1 L 113.17220115835575 55.9 L 118.44004942742698 61.4 L 122.51838357122408 66.8 L 126.00196065238406 72.4 L 129.1456765548943 77.8 L 132.1194618680797 83.3 L 135.09324718126507 88.8 L 137.64220602113824 94.3 L 140.9558525129734 99.7 L 144.52439488879583 105.1 L 148.17790255928068 110.6 L 153.36078553368952 116.1 L 160.7527661693217 121.5 L 171.2884627074642 127 L 171.2884627074642 127 L 1.3578733825856477 127" fill="rgb(179,35,35)"></path><path  stroke-width="2" stroke="#B32323" d="M 1.3578733825856477 127 L 9.259645786192499 121.6 L 15.207216412563252 116.2 L 19.79534232433497 110.8 L 23.448849994819856 105.3 L 26.592565897330118 99.8 L 29.39642062119061 94.3 L 31.43558769308915 88.8 L 33.81461594363745 83.3 L 36.10867889952331 77.7 L 38.317776560746736 72.3 L 40.526874221970154 66.8 L 42.82093717785601 61.3 L 44.945069544416995 55.8 L 47.409063089627736 50.3 L 50.127952518825786 44.8 L 53.44159901066092 39.3 L 58.284620806419966 33.9 L 85.47351509840054 39.3 L 96.43403810985521 44.7 L 106.29001229069816 50.1 L 113.17220115835575 55.9 L 118.44004942742698 61.4 L 122.51838357122408 66.8 L 126.00196065238406 72.4 L 129.1456765548943 77.8 L 132.1194618680797 83.3 L 135.09324718126507 88.8 L 137.64220602113824 94.3 L 140.9558525129734 99.7 L 144.52439488879583 105.1 L 148.17790255928068 110.6 L 153.36078553368952 116.1 L 160.7527661693217 121.5 L 171.2884627074642 127" fill="none"></path></g><g clip-path="none" height="300" width="254" transform="translate(290,345) rotate(90) scale(-1,1) scale(1 1)"  visibility="visible" class="highcharts-markers"></g><g clip-path="url(#highcharts-22)" height="300" width="254" transform="translate(290,345) rotate(90) scale(-1,1) scale(1 1)"  visibility="visible" class="highcharts-series"><rect ry="0" rx="0" height="0" width="1" y="127" x="2" fill="#00688B"></rect><rect ry="0" rx="0" height="0" width="1" y="127" x="4" fill="#00688B"></rect><rect ry="0" rx="0" height="0" width="1" y="127" x="7" fill="#00688B"></rect><rect ry="0" rx="0" height="0" width="1" y="127" x="10" fill="#00688B"></rect><rect ry="0" rx="0" height="0" width="1" y="127" x="13" fill="#00688B"></rect><rect ry="0" rx="0" height="0" width="1" y="127" x="15" fill="#00688B"></rect><rect ry="0" rx="0" height="0" width="1" y="127" x="18" fill="#00688B"></rect><rect ry="0" rx="0" height="0" width="1" y="127" x="21" fill="#00688B"></rect><rect ry="0" rx="0" height="0" width="1" y="127" x="23" fill="#00688B"></rect><rect ry="0" rx="0" height="0" width="1" y="127" x="26" fill="#00688B"></rect><rect ry="0" rx="0" height="0" width="1" y="127" x="29" fill="#00688B"></rect><rect ry="0" rx="0" height="0" width="1" y="127" x="32" fill="#00688B"></rect><rect ry="0" rx="0" height="0" width="1" y="127" x="34" fill="#00688B"></rect><rect ry="0" rx="0" height="0" width="1" y="127" x="37" fill="#00688B"></rect><rect ry="0" rx="0" height="0" width="1" y="127" x="40" fill="#00688B"></rect><rect ry="0" rx="0" height="0" width="1" y="127" x="42" fill="#00688B"></rect><rect ry="0" rx="0" height="0" width="1" y="127" x="45" fill="#00688B"></rect><rect ry="0" rx="0" height="0" width="1" y="127" x="48" fill="#00688B"></rect><rect ry="0" rx="0" height="0" width="1" y="127" x="51" fill="#00688B"></rect><rect ry="0" rx="0" height="0" width="1" y="43" x="53" fill="#00688B"></rect><rect ry="0" rx="0" height="0" width="1" y="85" x="56" fill="#00688B"></rect><rect ry="0" rx="0" height="0" width="1" y="85" x="59" fill="#00688B"></rect><rect ry="0" rx="0" height="0" width="1" y="43" x="61" fill="#00688B"></rect><rect ry="0" rx="0" height="0" width="1" y="127" x="64" fill="#00688B"></rect><rect ry="0" rx="0" height="0" width="1" y="127" x="67" fill="#00688B"></rect><rect ry="0" rx="0" height="0" width="1" y="127" x="70" fill="#00688B"></rect><rect ry="0" rx="0" height="0" width="1" y="127" x="72" fill="#00688B"></rect><rect ry="0" rx="0" height="0" width="1" y="127" x="75" fill="#00688B"></rect><rect ry="0" rx="0" height="0" width="1" y="127" x="78" fill="#00688B"></rect><rect ry="0" rx="0" height="0" width="1" y="127" x="80" fill="#00688B"></rect><rect ry="0" rx="0" height="0" width="1" y="43" x="83" fill="#00688B"></rect><rect ry="0" rx="0" height="0" width="1" y="127" x="86" fill="#00688B"></rect><rect ry="0" rx="0" height="0" width="1" y="127" x="89" fill="#00688B"></rect><rect ry="0" rx="0" height="0" width="1" y="127" x="91" fill="#00688B"></rect><rect ry="0" rx="0" height="0" width="1" y="127" x="94" fill="#00688B"></rect><rect ry="0" rx="0" height="0" width="1" y="85" x="97" fill="#00688B"></rect><rect ry="0" rx="0" height="0" width="1" y="127" x="99" fill="#00688B"></rect><rect ry="0" rx="0" height="0" width="1" y="127" x="102" fill="#00688B"></rect><rect ry="0" rx="0" height="0" width="1" y="127" x="105" fill="#00688B"></rect><rect ry="0" rx="0" height="0" width="1" y="127" x="108" fill="#00688B"></rect><rect ry="0" rx="0" height="0" width="1" y="127" x="110" fill="#00688B"></rect><rect ry="0" rx="0" height="0" width="1" y="85" x="113" fill="#00688B"></rect><rect ry="0" rx="0" height="0" width="1" y="85" x="116" fill="#00688B"></rect><rect ry="0" rx="0" height="0" width="1" y="43" x="118" fill="#00688B"></rect><rect ry="0" rx="0" height="43" width="1" y="127" x="121" fill="#00688B"></rect><rect ry="0" rx="0" height="0" width="1" y="127" x="124" fill="#00688B"></rect><rect ry="0" rx="0" height="0" width="1" y="127" x="127" fill="#00688B"></rect><rect ry="0" rx="0" height="0" width="1" y="127" x="129" fill="#00688B"></rect><rect ry="0" rx="0" height="0" width="1" y="127" x="132" fill="#00688B"></rect><rect ry="0" rx="0" height="0" width="1" y="127" x="135" fill="#00688B"></rect><rect ry="0" rx="0" height="0" width="1" y="127" x="138" fill="#00688B"></rect><rect ry="0" rx="0" height="0" width="1" y="127" x="140" fill="#00688B"></rect><rect ry="0" rx="0" height="0" width="1" y="127" x="143" fill="#00688B"></rect><rect ry="0" rx="0" height="0" width="1" y="127" x="146" fill="#00688B"></rect><rect ry="0" rx="0" height="0" width="1" y="127" x="148" fill="#00688B"></rect><rect ry="0" rx="0" height="0" width="1" y="127" x="151" fill="#00688B"></rect><rect ry="0" rx="0" height="0" width="1" y="127" x="154" fill="#00688B"></rect><rect ry="0" rx="0" height="0" width="1" y="127" x="157" fill="#00688B"></rect><rect ry="0" rx="0" height="0" width="1" y="127" x="159" fill="#00688B"></rect><rect ry="0" rx="0" height="0" width="1" y="127" x="162" fill="#00688B"></rect><rect ry="0" rx="0" height="0" width="1" y="127" x="165" fill="#00688B"></rect><rect ry="0" rx="0" height="0" width="1" y="127" x="167" fill="#00688B"></rect><rect ry="0" rx="0" height="0" width="1" y="127" x="170" fill="#00688B"></rect><rect ry="0" rx="0" height="0" width="1" y="127" x="173" fill="#00688B"></rect><rect ry="0" rx="0" height="0" width="1" y="127" x="176" fill="#00688B"></rect><rect ry="0" rx="0" height="0" width="1" y="127" x="178" fill="#00688B"></rect><rect ry="0" rx="0" height="0" width="1" y="127" x="181" fill="#00688B"></rect><rect ry="0" rx="0" height="0" width="1" y="127" x="184" fill="#00688B"></rect><rect ry="0" rx="0" height="0" width="1" y="127" x="186" fill="#00688B"></rect><rect ry="0" rx="0" height="0" width="1" y="127" x="189" fill="#00688B"></rect><rect ry="0" rx="0" height="43" width="1" y="127" x="192" fill="#00688B"></rect><rect ry="0" rx="0" height="0" width="1" y="127" x="195" fill="#00688B"></rect><rect ry="0" rx="0" height="0" width="1" y="127" x="197" fill="#00688B"></rect><rect ry="0" rx="0" height="43" width="1" y="127" x="200" fill="#00688B"></rect><rect ry="0" rx="0" height="0" width="1" y="127" x="203" fill="#00688B"></rect><rect ry="0" rx="0" height="43" width="1" y="127" x="205" fill="#00688B"></rect><rect ry="0" rx="0" height="0" width="1" y="127" x="208" fill="#00688B"></rect><rect ry="0" rx="0" height="0" width="1" y="127" x="211" fill="#00688B"></rect><rect ry="0" rx="0" height="0" width="1" y="127" x="214" fill="#00688B"></rect><rect ry="0" rx="0" height="0" width="1" y="127" x="216" fill="#00688B"></rect><rect ry="0" rx="0" height="85" width="1" y="127" x="219" fill="#00688B"></rect><rect ry="0" rx="0" height="43" width="1" y="127" x="222" fill="#00688B"></rect><rect ry="0" rx="0" height="0" width="1" y="127" x="224" fill="#00688B"></rect><rect ry="0" rx="0" height="0" width="1" y="127" x="227" fill="#00688B"></rect><rect ry="0" rx="0" height="0" width="1" y="127" x="230" fill="#00688B"></rect><rect ry="0" rx="0" height="0" width="1" y="127" x="233" fill="#00688B"></rect><rect ry="0" rx="0" height="0" width="1" y="127" x="235" fill="#00688B"></rect><rect ry="0" rx="0" height="0" width="1" y="127" x="238" fill="#00688B"></rect><rect ry="0" rx="0" height="0" width="1" y="127" x="241" fill="#00688B"></rect><rect ry="0" rx="0" height="0" width="1" y="127" x="243" fill="#00688B"></rect><rect ry="0" rx="0" height="0" width="1" y="127" x="246" fill="#00688B"></rect><rect ry="0" rx="0" height="0" width="1" y="127" x="249" fill="#00688B"></rect><rect ry="0" rx="0" height="0" width="1" y="127" x="252" fill="#00688B"></rect><rect ry="0" rx="0" height="0" width="1" y="127" x="254" fill="#00688B"></rect><rect ry="0" rx="0" height="0" width="1" y="127" x="257" fill="#00688B"></rect><rect ry="0" rx="0" height="0" width="1" y="127" x="260" fill="#00688B"></rect><rect ry="0" rx="0" height="0" width="1" y="127" x="262" fill="#00688B"></rect><rect ry="0" rx="0" height="0" width="1" y="127" x="265" fill="#00688B"></rect><rect ry="0" rx="0" height="0" width="1" y="127" x="268" fill="#00688B"></rect><rect ry="0" rx="0" height="0" width="1" y="127" x="271" fill="#00688B"></rect></g><g clip-path="none" height="300" width="254" transform="translate(290,345) rotate(90) scale(-1,1) scale(1 1)"  visibility="visible" class="highcharts-markers"></g><g clip-path="url(#highcharts-22)" height="300" width="254" transform="translate(290,345) rotate(90) scale(-1,1) scale(1 1)"  visibility="visible" class="highcharts-series"><rect ry="0" rx="0" height="0" width="1" y="127" x="2" fill="#B22222"></rect><rect ry="0" rx="0" height="0" width="1" y="127" x="4" fill="#B22222"></rect><rect ry="0" rx="0" height="0" width="1" y="127" x="7" fill="#B22222"></rect><rect ry="0" rx="0" height="0" width="1" y="127" x="10" fill="#B22222"></rect><rect ry="0" rx="0" height="0" width="1" y="127" x="13" fill="#B22222"></rect><rect ry="0" rx="0" height="0" width="1" y="127" x="15" fill="#B22222"></rect><rect ry="0" rx="0" height="0" width="1" y="127" x="18" fill="#B22222"></rect><rect ry="0" rx="0" height="0" width="1" y="127" x="21" fill="#B22222"></rect><rect ry="0" rx="0" height="0" width="1" y="127" x="23" fill="#B22222"></rect><rect ry="0" rx="0" height="0" width="1" y="127" x="26" fill="#B22222"></rect><rect ry="0" rx="0" height="0" width="1" y="127" x="29" fill="#B22222"></rect><rect ry="0" rx="0" height="0" width="1" y="127" x="32" fill="#B22222"></rect><rect ry="0" rx="0" height="0" width="1" y="127" x="34" fill="#B22222"></rect><rect ry="0" rx="0" height="0" width="1" y="127" x="37" fill="#B22222"></rect><rect ry="0" rx="0" height="0" width="1" y="127" x="40" fill="#B22222"></rect><rect ry="0" rx="0" height="0" width="1" y="127" x="42" fill="#B22222"></rect><rect ry="0" rx="0" height="0" width="1" y="127" x="45" fill="#B22222"></rect><rect ry="0" rx="0" height="0" width="1" y="127" x="48" fill="#B22222"></rect><rect ry="0" rx="0" height="0" width="1" y="127" x="51" fill="#B22222"></rect><rect ry="0" rx="0" height="84" width="1" y="43" x="53" fill="#B22222"></rect><rect ry="0" rx="0" height="42" width="1" y="85" x="56" fill="#B22222"></rect><rect ry="0" rx="0" height="42" width="1" y="85" x="59" fill="#B22222"></rect><rect ry="0" rx="0" height="84" width="1" y="43" x="61" fill="#B22222"></rect><rect ry="0" rx="0" height="0" width="1" y="127" x="64" fill="#B22222"></rect><rect ry="0" rx="0" height="0" width="1" y="127" x="67" fill="#B22222"></rect><rect ry="0" rx="0" height="0" width="1" y="127" x="70" fill="#B22222"></rect><rect ry="0" rx="0" height="0" width="1" y="127" x="72" fill="#B22222"></rect><rect ry="0" rx="0" height="0" width="1" y="127" x="75" fill="#B22222"></rect><rect ry="0" rx="0" height="0" width="1" y="127" x="78" fill="#B22222"></rect><rect ry="0" rx="0" height="0" width="1" y="127" x="80" fill="#B22222"></rect><rect ry="0" rx="0" height="84" width="1" y="43" x="83" fill="#B22222"></rect><rect ry="0" rx="0" height="0" width="1" y="127" x="86" fill="#B22222"></rect><rect ry="0" rx="0" height="0" width="1" y="127" x="89" fill="#B22222"></rect><rect ry="0" rx="0" height="0" width="1" y="127" x="91" fill="#B22222"></rect><rect ry="0" rx="0" height="0" width="1" y="127" x="94" fill="#B22222"></rect><rect ry="0" rx="0" height="42" width="1" y="85" x="97" fill="#B22222"></rect><rect ry="0" rx="0" height="0" width="1" y="127" x="99" fill="#B22222"></rect><rect ry="0" rx="0" height="0" width="1" y="127" x="102" fill="#B22222"></rect><rect ry="0" rx="0" height="0" width="1" y="127" x="105" fill="#B22222"></rect><rect ry="0" rx="0" height="0" width="1" y="127" x="108" fill="#B22222"></rect><rect ry="0" rx="0" height="0" width="1" y="127" x="110" fill="#B22222"></rect><rect ry="0" rx="0" height="42" width="1" y="85" x="113" fill="#B22222"></rect><rect ry="0" rx="0" height="42" width="1" y="85" x="116" fill="#B22222"></rect><rect ry="0" rx="0" height="84" width="1" y="43" x="118" fill="#B22222"></rect><rect ry="0" rx="0" height="0" width="1" y="127" x="121" fill="#B22222"></rect><rect ry="0" rx="0" height="0" width="1" y="127" x="124" fill="#B22222"></rect><rect ry="0" rx="0" height="0" width="1" y="127" x="127" fill="#B22222"></rect><rect ry="0" rx="0" height="0" width="1" y="127" x="129" fill="#B22222"></rect><rect ry="0" rx="0" height="0" width="1" y="127" x="132" fill="#B22222"></rect><rect ry="0" rx="0" height="0" width="1" y="127" x="135" fill="#B22222"></rect><rect ry="0" rx="0" height="0" width="1" y="127" x="138" fill="#B22222"></rect><rect ry="0" rx="0" height="0" width="1" y="127" x="140" fill="#B22222"></rect><rect ry="0" rx="0" height="0" width="1" y="127" x="143" fill="#B22222"></rect><rect ry="0" rx="0" height="0" width="1" y="127" x="146" fill="#B22222"></rect><rect ry="0" rx="0" height="0" width="1" y="127" x="148" fill="#B22222"></rect><rect ry="0" rx="0" height="0" width="1" y="127" x="151" fill="#B22222"></rect><rect ry="0" rx="0" height="0" width="1" y="127" x="154" fill="#B22222"></rect><rect ry="0" rx="0" height="0" width="1" y="127" x="157" fill="#B22222"></rect><rect ry="0" rx="0" height="0" width="1" y="127" x="159" fill="#B22222"></rect><rect ry="0" rx="0" height="0" width="1" y="127" x="162" fill="#B22222"></rect><rect ry="0" rx="0" height="0" width="1" y="127" x="165" fill="#B22222"></rect><rect ry="0" rx="0" height="0" width="1" y="127" x="167" fill="#B22222"></rect><rect ry="0" rx="0" height="0" width="1" y="127" x="170" fill="#B22222"></rect><rect ry="0" rx="0" height="0" width="1" y="127" x="173" fill="#B22222"></rect><rect ry="0" rx="0" height="0" width="1" y="127" x="176" fill="#B22222"></rect><rect ry="0" rx="0" height="0" width="1" y="127" x="178" fill="#B22222"></rect><rect ry="0" rx="0" height="0" width="1" y="127" x="181" fill="#B22222"></rect><rect ry="0" rx="0" height="0" width="1" y="127" x="184" fill="#B22222"></rect><rect ry="0" rx="0" height="0" width="1" y="127" x="186" fill="#B22222"></rect><rect ry="0" rx="0" height="0" width="1" y="127" x="189" fill="#B22222"></rect><rect ry="0" rx="0" height="0" width="1" y="127" x="192" fill="#B22222"></rect><rect ry="0" rx="0" height="0" width="1" y="127" x="195" fill="#B22222"></rect><rect ry="0" rx="0" height="0" width="1" y="127" x="197" fill="#B22222"></rect><rect ry="0" rx="0" height="0" width="1" y="127" x="200" fill="#B22222"></rect><rect ry="0" rx="0" height="0" width="1" y="127" x="203" fill="#B22222"></rect><rect ry="0" rx="0" height="0" width="1" y="127" x="205" fill="#B22222"></rect><rect ry="0" rx="0" height="0" width="1" y="127" x="208" fill="#B22222"></rect><rect ry="0" rx="0" height="0" width="1" y="127" x="211" fill="#B22222"></rect><rect ry="0" rx="0" height="0" width="1" y="127" x="214" fill="#B22222"></rect><rect ry="0" rx="0" height="0" width="1" y="127" x="216" fill="#B22222"></rect><rect ry="0" rx="0" height="0" width="1" y="127" x="219" fill="#B22222"></rect><rect ry="0" rx="0" height="0" width="1" y="127" x="222" fill="#B22222"></rect><rect ry="0" rx="0" height="0" width="1" y="127" x="224" fill="#B22222"></rect><rect ry="0" rx="0" height="0" width="1" y="127" x="227" fill="#B22222"></rect><rect ry="0" rx="0" height="0" width="1" y="127" x="230" fill="#B22222"></rect><rect ry="0" rx="0" height="0" width="1" y="127" x="233" fill="#B22222"></rect><rect ry="0" rx="0" height="0" width="1" y="127" x="235" fill="#B22222"></rect><rect ry="0" rx="0" height="0" width="1" y="127" x="238" fill="#B22222"></rect><rect ry="0" rx="0" height="0" width="1" y="127" x="241" fill="#B22222"></rect><rect ry="0" rx="0" height="0" width="1" y="127" x="243" fill="#B22222"></rect><rect ry="0" rx="0" height="0" width="1" y="127" x="246" fill="#B22222"></rect><rect ry="0" rx="0" height="0" width="1" y="127" x="249" fill="#B22222"></rect><rect ry="0" rx="0" height="0" width="1" y="127" x="252" fill="#B22222"></rect><rect ry="0" rx="0" height="0" width="1" y="127" x="254" fill="#B22222"></rect><rect ry="0" rx="0" height="0" width="1" y="127" x="257" fill="#B22222"></rect><rect ry="0" rx="0" height="0" width="1" y="127" x="260" fill="#B22222"></rect><rect ry="0" rx="0" height="0" width="1" y="127" x="262" fill="#B22222"></rect><rect ry="0" rx="0" height="0" width="1" y="127" x="265" fill="#B22222"></rect><rect ry="0" rx="0" height="0" width="1" y="127" x="268" fill="#B22222"></rect><rect ry="0" rx="0" height="0" width="1" y="127" x="271" fill="#B22222"></rect></g><g clip-path="none" height="300" width="254" transform="translate(290,345) rotate(90) scale(-1,1) scale(1 1)"  visibility="visible" class="highcharts-markers"></g></g><text  class="highcharts-title" text-anchor="middle" style="font-family:'lucida grande', 'lucida sans unicode', verdana, arial, helvetica, sans-serif;font-size:16px;color:#274b6d;fill:#274b6d;" y="25" x="150"><tspan x="150">Beanplot</tspan></text><text  class="highcharts-subtitle" text-anchor="middle" style="font-family:'lucida grande', 'lucida sans unicode', verdana, arial, helvetica, sans-serif;font-size:10px;color:#4d759e;fill:#4d759e;" y="40" x="150"><tspan x="150">T-test p-value: 1.8e-05</tspan></text><g transform="translate(20,365)"  class="highcharts-legend"><rect visibility="visible" stroke-width="1" stroke="#909090" height="24" width="259" y="0.5" x="0.5" fill="none" ry="5" rx="5"></rect><g clip-path="url(#highcharts-21)" ><g><g transform="translate(8,3)"  class="highcharts-legend-item"><text  text-anchor="start" style="font-family:'lucida grande', 'lucida sans unicode', verdana, arial, helvetica, sans-serif;font-size:12px;cursor:pointer;color:#274b6d;fill:#274b6d;" y="15" x="21"><tspan x="21">Early CaptiveSpray</tspan></text><rect  height="12" width="16" y="4" x="0" fill="#01698C" ry="4" rx="4"></rect></g><g transform="translate(142,3)"  class="highcharts-legend-item"><text  text-anchor="start" style="font-family:'lucida grande', 'lucida sans unicode', verdana, arial, helvetica, sans-serif;font-size:12px;cursor:pointer;color:#274b6d;fill:#274b6d;" y="15" x="21"><tspan x="21">Late NanoSpray</tspan></text><rect  height="12" width="16" y="4" x="0" fill="#B32323" ry="4" rx="4"></rect></g></g></g></g><g  class="highcharts-axis-labels"><text opacity="1" text-anchor="end" style="font-family:'lucida grande', 'lucida sans unicode', verdana, arial, helvetica, sans-serif;font-size:11px;width:107px;color:#666;cursor:default;line-height:14px;fill:#666;" y="307.2049590774557" x="28"><tspan x="28">50</tspan></text><text opacity="1" text-anchor="end" style="font-family:'lucida grande', 'lucida sans unicode', verdana, arial, helvetica, sans-serif;font-size:11px;width:107px;color:#666;cursor:default;line-height:14px;fill:#666;" y="243.51818765373818" x="28"><tspan x="28">100</tspan></text><text opacity="1" text-anchor="end" style="font-family:'lucida grande', 'lucida sans unicode', verdana, arial, helvetica, sans-serif;font-size:11px;width:107px;color:#666;cursor:default;line-height:14px;fill:#666;" y="179.83141623002066" x="28"><tspan x="28">150</tspan></text><text opacity="1" text-anchor="end" style="font-family:'lucida grande', 'lucida sans unicode', verdana, arial, helvetica, sans-serif;font-size:11px;width:107px;color:#666;cursor:default;line-height:14px;fill:#666;" y="116.14464480630315" x="28"><tspan x="28">200</tspan></text><text opacity="1" text-anchor="end" style="font-family:'lucida grande', 'lucida sans unicode', verdana, arial, helvetica, sans-serif;font-size:11px;width:107px;color:#666;cursor:default;line-height:14px;fill:#666;" y="52.45787338258564" x="28"><tspan x="28">250</tspan></text></g><g  class="highcharts-axis-labels"><text opacity="1" text-anchor="middle" style="font-family:'lucida grande', 'lucida sans unicode', verdana, arial, helvetica, sans-serif;font-size:11px;color:#666;cursor:default;line-height:14px;fill:#666;" y="359" x="36"><tspan x="36">3</tspan></text><text opacity="1" text-anchor="middle" style="font-family:'lucida grande', 'lucida sans unicode', verdana, arial, helvetica, sans-serif;font-size:11px;color:#666;cursor:default;line-height:14px;fill:#666;" y="359" x="78.33333333333334"><tspan x="78.33333333333334">2</tspan></text><text opacity="1" text-anchor="middle" style="font-family:'lucida grande', 'lucida sans unicode', verdana, arial, helvetica, sans-serif;font-size:11px;color:#666;cursor:default;line-height:14px;fill:#666;" y="359" x="120.66666666666667"><tspan x="120.66666666666667">1</tspan></text><text opacity="1" text-anchor="middle" style="font-family:'lucida grande', 'lucida sans unicode', verdana, arial, helvetica, sans-serif;font-size:11px;color:#666;cursor:default;line-height:14px;fill:#666;" y="359" x="163"><tspan x="163">0</tspan></text><text opacity="1" text-anchor="middle" style="font-family:'lucida grande', 'lucida sans unicode', verdana, arial, helvetica, sans-serif;font-size:11px;color:#666;cursor:default;line-height:14px;fill:#666;" y="359" x="205.33333333333334"><tspan x="205.33333333333334">1</tspan></text><text opacity="1" text-anchor="middle" style="font-family:'lucida grande', 'lucida sans unicode', verdana, arial, helvetica, sans-serif;font-size:11px;color:#666;cursor:default;line-height:14px;fill:#666;" y="359" x="247.66666666666669"><tspan x="247.66666666666669">2</tspan></text><text opacity="1" text-anchor="middle" style="font-family:'lucida grande', 'lucida sans unicode', verdana, arial, helvetica, sans-serif;font-size:11px;color:#666;cursor:default;line-height:14px;fill:#666;" y="359" x="290"><tspan x="290">3</tspan></text></g><g visibility="hidden" style="cursor:default;padding:0;white-space:nowrap;"  class="highcharts-tooltip"><rect transform="translate(1, 1)" stroke-width="5" stroke-opacity="0.049999999999999996" stroke="black"  fill-opacity="0.85" height="16" width="16" y="0.5" x="0.5" fill="none" ry="3" rx="3"></rect><rect transform="translate(1, 1)" stroke-width="3" stroke-opacity="0.09999999999999999" stroke="black"  fill-opacity="0.85" height="16" width="16" y="0.5" x="0.5" fill="none" ry="3" rx="3"></rect><rect transform="translate(1, 1)" stroke-width="1" stroke-opacity="0.15" stroke="black"  fill-opacity="0.85" height="16" width="16" y="0.5" x="0.5" fill="none" ry="3" rx="3"></rect><rect fill-opacity="0.85" height="16" width="16" y="0.5" x="0.5" fill="rgb(255,255,255)" ry="3" rx="3"></rect><text  style="font-family:'lucida grande', 'lucida sans unicode', verdana, arial, helvetica, sans-serif;font-size:12px;color:#333333;fill:#333333;" y="21" x="8"></text></g></svg>