<svg xmlns:xlink="http://www.w3.org/1999/xlink" height="400" width="600" version="1.1" xmlns="http://www.w3.org/2000/svg"><desc>Created with Highcharts 3.0.1</desc><defs><clipPath id="highcharts-50"><rect height="400" width="9999" y="0" x="0" fill="none" ry="0" rx="0"></rect></clipPath><clipPath id="highcharts-51"><rect height="299" width="560" y="0" x="0" fill="none"></rect></clipPath></defs><rect height="400" width="600" y="0" x="0" fill="#FFFFFF" ry="0" rx="0"></rect><g  class="highcharts-grid"><path opacity="1"  stroke-width="1" stroke="#C0C0C0" d="M 128.5 45 L 128.5 345" fill="none"></path><path opacity="1"  stroke-width="1" stroke="#C0C0C0" d="M 225.5 45 L 225.5 345" fill="none"></path><path opacity="1"  stroke-width="1" stroke="#C0C0C0" d="M 322.5 45 L 322.5 345" fill="none"></path><path opacity="1"  stroke-width="1" stroke="#C0C0C0" d="M 417.5 45 L 417.5 345" fill="none"></path><path opacity="1"  stroke-width="1" stroke="#C0C0C0" d="M 515.5 45 L 515.5 345" fill="none"></path><path opacity="1"  stroke-width="1" stroke="#C0C0C0" d="M 33.5 45 L 33.5 345" fill="none"></path></g><g  class="highcharts-grid"><path opacity="1"  stroke-width="1" stroke="#C0C0C0" d="M 30 223.5 L 590 223.5" fill="none"></path><path opacity="1"  stroke-width="1" stroke="#C0C0C0" d="M 30 134.5 L 590 134.5" fill="none"></path><path opacity="1"  stroke-width="1" stroke="#C0C0C0" d="M 30 45.5 L 590 45.5" fill="none"></path><path opacity="1"  stroke-width="1" stroke="#C0C0C0" d="M 30 313.5 L 590 313.5" fill="none"></path></g><g  class="highcharts-axis"><path opacity="1" stroke-width="1" stroke="#C0D0E0" d="M 128.5 345 L 128.5 350" fill="none"></path><path opacity="1" stroke-width="1" stroke="#C0D0E0" d="M 225.5 345 L 225.5 350" fill="none"></path><path opacity="1" stroke-width="1" stroke="#C0D0E0" d="M 322.5 345 L 322.5 350" fill="none"></path><path opacity="1" stroke-width="1" stroke="#C0D0E0" d="M 417.5 345 L 417.5 350" fill="none"></path><path opacity="1" stroke-width="1" stroke="#C0D0E0" d="M 515.5 345 L 515.5 350" fill="none"></path><path opacity="1" stroke-width="1" stroke="#C0D0E0" d="M 33.5 345 L 33.5 350" fill="none"></path><path visibility="visible"  stroke-width="1" stroke="#C0D0E0" d="M 30 344.5 L 590 344.5" fill="none"></path></g><g  class="highcharts-axis"></g><g  class="highcharts-series-group"><g clip-path="url(#highcharts-51)" transform="translate(30,45) scale(1 1)"  visibility="visible" class="highcharts-series"><path  stroke-width="2" stroke="#00688B" d="M 5.490196078431373 229.7 L 56.8643376689704 239.6 L 92.21392071742575 233.9 L 198.46476162233554 244.8 L 249.18320331913748 248.7 L 327.66180383370266 236.5 L 554.5098039215686 244.4" fill="none"></path></g><g clip-path="none" transform="translate(30,45) scale(1 1)"  visibility="visible" class="highcharts-markers"><path style=""  stroke-width="22" stroke="rgb(192,192,192)" stroke-opacity="0.0001" visibility="visible" stroke-linejoin="round" class="highcharts-tracker highcharts-tracker" d="M -4.509803921568627 229.7 L 5.490196078431373 229.7 L 56.8643376689704 239.6 L 92.21392071742575 233.9 L 198.46476162233554 244.8 L 249.18320331913748 248.7 L 327.66180383370266 236.5 L 554.5098039215686 244.4 L 564.5098039215686 244.4" fill="none"></path></g><g clip-path="url(#highcharts-51)" transform="translate(30,45) scale(1 1)"  visibility="visible" class="highcharts-series"><path  stroke-width="2" stroke="#B22222" d="M 9.238229390621953 248.6 L 61.53166882212905 176.9 L 203.26553923627986 251 L 289.80639279938276 238.9 L 312.72293933677656 238.9 L 361.9580934180142 59.8 L 410.9752300303961 174.6 L 422.2830328042154 234.9 L 489.4230774511177 243.8 L 495.4276190240835 247.9 L 530.4757119203935 247.9 L 542.2481060762073 250.3 L 545.426657989901 221.2" fill="none"></path></g><g clip-path="none" transform="translate(30,45) scale(1 1)"  visibility="visible" class="highcharts-markers"><path style=""  stroke-width="22" stroke="rgb(192,192,192)" stroke-opacity="0.0001" visibility="visible" stroke-linejoin="round" class="highcharts-tracker highcharts-tracker" d="M -0.761770609378047 248.6 L 9.238229390621953 248.6 L 61.53166882212905 176.9 L 203.26553923627986 251 L 289.80639279938276 238.9 L 312.72293933677656 238.9 L 361.9580934180142 59.8 L 410.9752300303961 174.6 L 422.2830328042154 234.9 L 489.4230774511177 243.8 L 495.4276190240835 247.9 L 530.4757119203935 247.9 L 542.2481060762073 250.3 L 545.426657989901 221.2 L 555.426657989901 221.2" fill="none"></path></g></g><text  class="highcharts-title" text-anchor="middle" style="font-family:'lucida grande', 'lucida sans unicode', verdana, arial, helvetica, sans-serif;font-size:16px;color:#274b6d;fill:#274b6d;" y="25" x="300"><tspan x="300">Values over Time</tspan></text><text  class="highcharts-subtitle" text-anchor="middle" style="font-family:'lucida grande', 'lucida sans unicode', verdana, arial, helvetica, sans-serif;font-size:11px;color:#4d759e;fill:#4d759e;" y="40" x="300"><tspan x="300">Dynamic Sampling--MS1max/MS1sampled Abundance Ratio IDs - Inefficient Sampling--Med Top Quart</tspan></text><g transform="translate(170,365)"  class="highcharts-legend"><rect visibility="visible" stroke-width="1" stroke="#909090" height="24" width="259" y="0.5" x="0.5" fill="none" ry="5" rx="5"></rect><g clip-path="url(#highcharts-50)" ><g><g transform="translate(8,3)"  class="highcharts-legend-item"><path stroke-width="2" stroke="#00688B" d="M 0 11 L 16 11" fill="none"></path><text  text-anchor="start" style="font-family:'lucida grande', 'lucida sans unicode', verdana, arial, helvetica, sans-serif;font-size:12px;cursor:pointer;color:#274b6d;fill:#274b6d;" y="15" x="21"><tspan x="21">Early CaptiveSpray</tspan></text></g><g transform="translate(142,3)"  class="highcharts-legend-item"><path stroke-width="2" stroke="#B22222" d="M 0 11 L 16 11" fill="none"></path><text  text-anchor="start" style="font-family:'lucida grande', 'lucida sans unicode', verdana, arial, helvetica, sans-serif;font-size:12px;cursor:pointer;color:#274b6d;fill:#274b6d;" y="15" x="21"><tspan x="21">Late NanoSpray</tspan></text></g></g></g></g><g  class="highcharts-axis-labels"><text opacity="1" text-anchor="middle" style="font-family:'lucida grande', 'lucida sans unicode', verdana, arial, helvetica, sans-serif;font-size:11px;color:#666;cursor:default;line-height:14px;fill:#666;" y="359" x="33.9404598136692"><tspan x="33.9404598136692">Jan '11</tspan></text><text opacity="1" text-anchor="middle" style="font-family:'lucida grande', 'lucida sans unicode', verdana, arial, helvetica, sans-serif;font-size:11px;color:#666;cursor:default;line-height:14px;fill:#666;" y="359" x="128.83572081682414"><tspan x="128.83572081682414">May '11</tspan></text><text opacity="1" text-anchor="middle" style="font-family:'lucida grande', 'lucida sans unicode', verdana, arial, helvetica, sans-serif;font-size:11px;color:#666;cursor:default;line-height:14px;fill:#666;" y="359" x="226.10336334505794"><tspan x="226.10336334505794">Sep '11</tspan></text><text opacity="1" text-anchor="middle" style="font-family:'lucida grande', 'lucida sans unicode', verdana, arial, helvetica, sans-serif;font-size:11px;color:#666;cursor:default;line-height:14px;fill:#666;" y="359" x="322.5802120315988"><tspan x="322.5802120315988">Jan '12</tspan></text><text opacity="1" text-anchor="middle" style="font-family:'lucida grande', 'lucida sans unicode', verdana, arial, helvetica, sans-serif;font-size:11px;color:#666;cursor:default;line-height:14px;fill:#666;" y="359" x="418.2662668764467"><tspan x="418.2662668764467">May '12</tspan></text><text opacity="1" text-anchor="middle" style="font-family:'lucida grande', 'lucida sans unicode', verdana, arial, helvetica, sans-serif;font-size:11px;color:#666;cursor:default;line-height:14px;fill:#666;" y="359" x="515.5339094046806"><tspan x="515.5339094046806">Sep '12</tspan></text></g><g  class="highcharts-axis-labels"><text opacity="1" text-anchor="end" style="font-family:'lucida grande', 'lucida sans unicode', verdana, arial, helvetica, sans-serif;font-size:11px;width:260px;color:#666;cursor:default;line-height:14px;fill:#666;" y="318.61256111312235" x="22"><tspan x="22">0</tspan></text><text opacity="1" text-anchor="end" style="font-family:'lucida grande', 'lucida sans unicode', verdana, arial, helvetica, sans-serif;font-size:11px;width:260px;color:#666;cursor:default;line-height:14px;fill:#666;" y="229.44170740874821" x="22"><tspan x="22">20</tspan></text><text opacity="1" text-anchor="end" style="font-family:'lucida grande', 'lucida sans unicode', verdana, arial, helvetica, sans-serif;font-size:11px;width:260px;color:#666;cursor:default;line-height:14px;fill:#666;" y="140.2708537043741" x="22"><tspan x="22">40</tspan></text><text opacity="1" text-anchor="end" style="font-family:'lucida grande', 'lucida sans unicode', verdana, arial, helvetica, sans-serif;font-size:11px;width:260px;color:#666;cursor:default;line-height:14px;fill:#666;" y="51.1" x="22"><tspan x="22">60</tspan></text></g><g visibility="hidden" style="cursor:default;padding:0;white-space:nowrap;"  class="highcharts-tooltip"><rect transform="translate(1, 1)" stroke-width="5" stroke-opacity="0.049999999999999996" stroke="black"  fill-opacity="0.85" height="16" width="16" y="0.5" x="0.5" fill="none" ry="3" rx="3"></rect><rect transform="translate(1, 1)" stroke-width="3" stroke-opacity="0.09999999999999999" stroke="black"  fill-opacity="0.85" height="16" width="16" y="0.5" x="0.5" fill="none" ry="3" rx="3"></rect><rect transform="translate(1, 1)" stroke-width="1" stroke-opacity="0.15" stroke="black"  fill-opacity="0.85" height="16" width="16" y="0.5" x="0.5" fill="none" ry="3" rx="3"></rect><rect fill-opacity="0.85" height="16" width="16" y="0.5" x="0.5" fill="rgb(255,255,255)" ry="3" rx="3"></rect><text  style="font-family:'lucida grande', 'lucida sans unicode', verdana, arial, helvetica, sans-serif;font-size:12px;color:#333333;fill:#333333;" y="21" x="8"></text></g></svg>