<svg xmlns:xlink="http://www.w3.org/1999/xlink" height="400" width="300" version="1.1" xmlns="http://www.w3.org/2000/svg"><desc>Created with Highcharts 3.0.1</desc><defs><clipPath id="highcharts-45"><rect height="400" width="9999" y="0" x="0" fill="none" ry="0" rx="0"></rect></clipPath><clipPath id="highcharts-46"><rect height="259" width="300" y="0" x="0" fill="none"></rect></clipPath></defs><rect height="400" width="300" y="0" x="0" fill="#FFFFFF" ry="0" rx="0"></rect><g  class="highcharts-grid"><path opacity="1"  stroke-width="1" stroke="#C0C0C0" d="M 30 223.5 L 290 223.5" fill="none"></path><path opacity="1"  stroke-width="1" stroke="#C0C0C0" d="M 30 135.5 L 290 135.5" fill="none"></path><path opacity="1"  stroke-width="1" stroke="#C0C0C0" d="M 30 46.5 L 290 46.5" fill="none"></path><path opacity="1"  stroke-width="1" stroke="#C0C0C0" d="M 30 311.5 L 290 311.5" fill="none"></path></g><g  class="highcharts-grid"><path opacity="1"  stroke-width="1" stroke="#C0C0C0" d="M 94.5 45 L 94.5 345" fill="none"></path><path opacity="1"  stroke-width="1" stroke="#C0C0C0" d="M 159.5 45 L 159.5 345" fill="none"></path><path opacity="1"  stroke-width="1" stroke="#C0C0C0" d="M 224.5 45 L 224.5 345" fill="none"></path><path opacity="1"  stroke-width="1" stroke="#C0C0C0" d="M 289.5 45 L 289.5 345" fill="none"></path><path opacity="1"  stroke-width="1" stroke="#C0C0C0" d="M 30.5 45 L 30.5 345" fill="none"></path></g><g  class="highcharts-axis"><path opacity="1" stroke-width="1" stroke="#C0D0E0" d="M 30 223.5 L 25 223.5" fill="none"></path><path opacity="1" stroke-width="1" stroke="#C0D0E0" d="M 30 135.5 L 25 135.5" fill="none"></path><path opacity="1" stroke-width="1" stroke="#C0D0E0" d="M 30 46.5 L 25 46.5" fill="none"></path><path opacity="1" stroke-width="1" stroke="#C0D0E0" d="M 30 311.5 L 25 311.5" fill="none"></path><path visibility="visible"  stroke-width="1" stroke="#C0D0E0" d="M 30.5 45 L 30.5 345" fill="none"></path></g><g  class="highcharts-axis"></g><g  class="highcharts-series-group"><g clip-path="url(#highcharts-46)" height="300" width="260" transform="translate(290,345) rotate(90) scale(-1,1) scale(1 1)"  visibility="visible" class="highcharts-series"><path  fill-opacity="0.75" d="M 3.72869057463109 130 L 7.5530193404603345 131.2 L 10.624071228171694 132.4 L 12.883901862525338 133.6 L 15.491398748318002 134.8 L 16.766175003594416 136 L 18.388617510309853 137.6 L 19.837226891305782 138.8 L 21.169947521822028 140 L 22.386779401858604 141.2 L 23.08211190473665 142.5 L 24.125110659053718 143.7 L 25.110165038130944 145 L 26.037275041968336 146.2 L 26.906440670565896 147.4 L 27.71766192392361 148.6 L 28.52888317728133 149.9 L 29.28216005539921 151.1 L 30.035436933517094 152.3 L 30.788713811634974 153.6 L 31.484046314513016 154.8 L 32.17937881739106 156.1 L 32.8747113202691 157.4 L 33.51209944790731 158.6 L 34.14948757554552 159.8 L 34.786875703183725 161 L 35.424263830821936 162.3 L 36.06165195846014 163.6 L 36.69904008609835 164.9 L 37.27848383849671 166.1 L 37.85792759089509 167.3 L 38.43737134329346 168.5 L 39.016815095691825 169.7 L 39.596258848090194 170.9 L 40.17570260048857 172.2 L 40.75514635288693 173.4 L 41.33459010528531 174.6 L 41.91403385768368 175.9 L 42.49347761008205 177.1 L 43.072921362480415 178.3 L 43.65236511487879 179.5 L 44.23180886727716 180.7 L 44.81125261967553 181.9 L 45.44864074731374 183.2 L 46.08602887495194 184.5 L 46.72341700259015 185.7 L 47.36080513022836 186.9 L 47.99819325786657 188.1 L 48.69352576074461 189.4 L 49.38885826362266 190.6 L 50.14213514174054 191.9 L 50.89541201985841 193.1 L 51.706633273216134 194.3 L 52.57579890181369 195.5 L 53.50290890565108 196.7 L 54.545907659968144 197.9 L 55.76273954000472 199.1 L 57.327237671480326 200.3 L 60.34034518395185 201.5 L 65.03383957837865 200.3 L 66.59833770985425 199.1 L 67.81516958989081 197.9 L 68.8581683442079 196.7 L 69.78527834804528 195.5 L 70.65444397664284 194.3 L 71.46566523000055 193 L 72.21894210811843 191.8 L 72.97221898623631 190.6 L 73.66755148911436 189.4 L 74.3628839919924 188.1 L 75.00027211963062 186.9 L 75.63766024726881 185.7 L 76.27504837490702 184.5 L 76.91243650254523 183.2 L 77.54982463018344 181.9 L 78.12926838258181 180.7 L 78.70871213498017 179.5 L 79.28815588737855 178.3 L 79.86759963977693 177.1 L 80.44704339217529 175.9 L 81.02648714457365 174.6 L 81.60593089697203 173.4 L 82.1853746493704 172.2 L 82.76481840176876 171 L 83.34426215416714 169.7 L 83.9237059065655 168.5 L 84.50314965896388 167.3 L 85.08259341136224 166.1 L 85.66203716376062 164.9 L 86.29942529139882 163.6 L 86.93681341903704 162.3 L 87.57420154667524 161.1 L 88.21158967431344 159.8 L 88.84897780195165 158.6 L 89.48636592958987 157.4 L 90.18169843246791 156.1 L 90.87703093534596 154.9 L 91.572363438224 153.7 L 92.32564031634188 152.4 L 93.07891719445976 151.2 L 93.83219407257764 150 L 94.64341532593536 148.7 L 95.45463657929308 147.5 L 96.32380220789062 146.3 L 97.25091221172802 145.1 L 98.23596659080525 143.8 L 99.27896534512232 142.6 L 100.37990847467921 141.3 L 101.1331853527971 140.1 L 102.46590598331335 138.9 L 103.91451536430928 137.7 L 104.89956974338651 136.5 L 106.17434599866291 135.3 L 108.60800975873606 134.1 L 110.46222976641086 132.9 L 112.95383790172384 131.7 L 119.61744105430509 130 L 119.61744105430509 130 L 3.72869057463109 130" fill="rgb(1,105,140)"></path><path  stroke-width="2" stroke="#01698C" d="M 3.72869057463109 130 L 7.5530193404603345 131.2 L 10.624071228171694 132.4 L 12.883901862525338 133.6 L 15.491398748318002 134.8 L 16.766175003594416 136 L 18.388617510309853 137.6 L 19.837226891305782 138.8 L 21.169947521822028 140 L 22.386779401858604 141.2 L 23.08211190473665 142.5 L 24.125110659053718 143.7 L 25.110165038130944 145 L 26.037275041968336 146.2 L 26.906440670565896 147.4 L 27.71766192392361 148.6 L 28.52888317728133 149.9 L 29.28216005539921 151.1 L 30.035436933517094 152.3 L 30.788713811634974 153.6 L 31.484046314513016 154.8 L 32.17937881739106 156.1 L 32.8747113202691 157.4 L 33.51209944790731 158.6 L 34.14948757554552 159.8 L 34.786875703183725 161 L 35.424263830821936 162.3 L 36.06165195846014 163.6 L 36.69904008609835 164.9 L 37.27848383849671 166.1 L 37.85792759089509 167.3 L 38.43737134329346 168.5 L 39.016815095691825 169.7 L 39.596258848090194 170.9 L 40.17570260048857 172.2 L 40.75514635288693 173.4 L 41.33459010528531 174.6 L 41.91403385768368 175.9 L 42.49347761008205 177.1 L 43.072921362480415 178.3 L 43.65236511487879 179.5 L 44.23180886727716 180.7 L 44.81125261967553 181.9 L 45.44864074731374 183.2 L 46.08602887495194 184.5 L 46.72341700259015 185.7 L 47.36080513022836 186.9 L 47.99819325786657 188.1 L 48.69352576074461 189.4 L 49.38885826362266 190.6 L 50.14213514174054 191.9 L 50.89541201985841 193.1 L 51.706633273216134 194.3 L 52.57579890181369 195.5 L 53.50290890565108 196.7 L 54.545907659968144 197.9 L 55.76273954000472 199.1 L 57.327237671480326 200.3 L 60.34034518395185 201.5 L 65.03383957837865 200.3 L 66.59833770985425 199.1 L 67.81516958989081 197.9 L 68.8581683442079 196.7 L 69.78527834804528 195.5 L 70.65444397664284 194.3 L 71.46566523000055 193 L 72.21894210811843 191.8 L 72.97221898623631 190.6 L 73.66755148911436 189.4 L 74.3628839919924 188.1 L 75.00027211963062 186.9 L 75.63766024726881 185.7 L 76.27504837490702 184.5 L 76.91243650254523 183.2 L 77.54982463018344 181.9 L 78.12926838258181 180.7 L 78.70871213498017 179.5 L 79.28815588737855 178.3 L 79.86759963977693 177.1 L 80.44704339217529 175.9 L 81.02648714457365 174.6 L 81.60593089697203 173.4 L 82.1853746493704 172.2 L 82.76481840176876 171 L 83.34426215416714 169.7 L 83.9237059065655 168.5 L 84.50314965896388 167.3 L 85.08259341136224 166.1 L 85.66203716376062 164.9 L 86.29942529139882 163.6 L 86.93681341903704 162.3 L 87.57420154667524 161.1 L 88.21158967431344 159.8 L 88.84897780195165 158.6 L 89.48636592958987 157.4 L 90.18169843246791 156.1 L 90.87703093534596 154.9 L 91.572363438224 153.7 L 92.32564031634188 152.4 L 93.07891719445976 151.2 L 93.83219407257764 150 L 94.64341532593536 148.7 L 95.45463657929308 147.5 L 96.32380220789062 146.3 L 97.25091221172802 145.1 L 98.23596659080525 143.8 L 99.27896534512232 142.6 L 100.37990847467921 141.3 L 101.1331853527971 140.1 L 102.46590598331335 138.9 L 103.91451536430928 137.7 L 104.89956974338651 136.5 L 106.17434599866291 135.3 L 108.60800975873606 134.1 L 110.46222976641086 132.9 L 112.95383790172384 131.7 L 119.61744105430509 130" fill="none"></path></g><g clip-path="none" height="300" width="260" transform="translate(290,345) rotate(90) scale(-1,1) scale(1 1)"  visibility="visible" class="highcharts-markers"></g><g clip-path="url(#highcharts-46)" height="300" width="260" transform="translate(290,345) rotate(90) scale(-1,1) scale(1 1)"  visibility="visible" class="highcharts-series"><path  fill-opacity="0.75" d="M 1.4323877665808586 130 L 3.58096941645217 128.7 L 4.583640853058782 126.9 L 7.591655162878615 125.5 L 9.02404292945949 124.2 L 10.886147026014626 122.8 L 12.461773569253587 121.5 L 13.464445005860199 119.5 L 14.610355219124898 118.2 L 15.756265432389597 116.8 L 16.75893686899621 115.4 L 17.331891975628558 114 L 18.191324635577082 112.7 L 19.050757295525607 111.2 L 19.91018995547413 109.7 L 20.626383838764568 108.4 L 21.342577722055005 107 L 22.05877160534544 105.5 L 22.77496548863588 104 L 23.491159371926315 102.5 L 24.207353255216752 100.8 L 24.7803083618491 99.5 L 25.35326346848145 98.1 L 25.9262185751138 96.7 L 26.499173681746154 95.3 L 27.0721287883785 93.8 L 27.64508389501085 92.3 L 28.2180390016432 90.7 L 28.790994108275548 89.2 L 29.363949214907898 87.6 L 29.93690432154025 86 L 30.509859428172597 84.3 L 30.939575758146862 82.5 L 31.512530864779208 80.8 L 31.942247194753474 79.5 L 32.37196352472773 78.2 L 32.801679854701995 76.9 L 33.23139618467626 75.5 L 33.66111251465052 74.2 L 34.09082884462478 72.8 L 34.52054517459904 71.5 L 34.950261504573305 70.1 L 35.37997783454757 68.7 L 35.80969416452183 67.3 L 36.23941049449609 66 L 36.669126824470354 64.6 L 37.098843154444616 63.2 L 37.52855948441888 61.8 L 37.95827581439314 60.5 L 38.38799214436741 59.1 L 38.817708474341664 57.7 L 39.247424804315926 56.4 L 39.677141134290196 55 L 40.10685746426445 53.7 L 40.53657379423871 52.4 L 40.966290124212975 51 L 41.39600645418724 49.7 L 41.96896156081959 48 L 42.54191666745194 46.3 L 43.11487177408429 44.7 L 43.687826880716635 43.1 L 44.260781987348985 41.5 L 44.833737093981334 39.9 L 45.40669220061369 38.4 L 45.97964730724603 37 L 46.55260241387838 35.6 L 47.12555752051073 34.2 L 47.84175140380117 32.6 L 48.557945287091606 31.1 L 49.27413917038204 29.7 L 49.99033305367248 28.4 L 50.84976571362101 27 L 51.852437150227615 25.5 L 52.99834736349232 24.1 L 54.430735130073195 22.7 L 62.165629069609906 24.1 L 63.311539282874605 25.5 L 64.31421071948121 26.9 L 65.17364337942975 28.3 L 66.03307603937827 29.9 L 66.7492699226687 31.3 L 67.46546380595915 32.7 L 68.18165768924958 34.3 L 68.89785157254002 35.9 L 69.47080667917236 37.3 L 70.04376178580472 38.7 L 70.61671689243707 40.1 L 71.18967199906942 41.6 L 71.76262710570177 43.1 L 72.3355822123341 44.7 L 72.90853731896647 46.3 L 73.4814924255988 47.9 L 74.05444753223117 49.5 L 74.62740263886351 51.1 L 75.34359652215396 52.7 L 75.9165516287863 54.3 L 76.48950673541864 56 L 77.20570061870909 57.5 L 77.77865572534142 59.1 L 78.35161083197379 60.8 L 78.92456593860612 62.4 L 79.49752104523849 64 L 80.07047615187084 65.6 L 80.64343125850317 67.2 L 81.21638636513553 68.7 L 81.78934147176787 70.3 L 82.36229657840023 71.8 L 82.93525168503258 73.4 L 83.50820679166493 74.8 L 84.08116189829728 76.3 L 84.65411700492962 77.8 L 85.22707211156198 79.2 L 85.80002721819433 80.5 L 86.37298232482668 81.9 L 86.94593743145903 83.2 L 87.66213131474947 84.8 L 88.3783251980399 86.3 L 89.09451908133035 87.8 L 89.81071296462078 89.2 L 90.52690684791122 90.6 L 91.38633950785973 92.2 L 92.24577216780825 93.6 L 93.1052048277568 95 L 94.1078762643634 96.5 L 95.11054770097 97.8 L 96.2564579142347 99.2 L 97.5456069041575 100.6 L 98.6915171174222 102.2 L 99.83742733068688 103.5 L 101.41305387392586 104.9 L 102.41572531053247 106.2 L 110.58033558004344 107.6 L 116.88284175299928 106.3 L 130.77700308883377 107.6 L 133.7850173986536 108.9 L 136.22007660184107 110.3 L 138.3686582517124 111.7 L 140.3740011249256 113.1 L 142.23610522148076 114.4 L 144.0982093180359 115.8 L 145.960313414591 117.2 L 147.82241751114617 118.5 L 149.8277603843594 119.9 L 151.83310325757262 121.2 L 153.9816849074439 122.5 L 156.4167441106314 123.9 L 159.13828086713505 125.2 L 162.43277273027107 126.5 L 166.87317480667178 127.8 L 209.12861392080754 126.5 L 213.42577722055017 125.1 L 217.29322419031854 123.8 L 220.87419360677075 122.5 L 224.598401799881 121.1 L 228.7523263229655 119.8 L 234.7683549426052 118.5 L 249.95166526836246 119.8 L 254.10558979144702 121.1 L 257.8297979845573 122.5 L 261.4107674010095 123.8 L 265.13497559411974 125.1 L 269.4321388938624 126.4 L 274.7319736302116 127.7 L 287.9099410827556 130 L 287.9099410827556 130 L 1.4323877665808586 130" fill="rgb(179,35,35)"></path><path  stroke-width="2" stroke="#B32323" d="M 1.4323877665808586 130 L 3.58096941645217 128.7 L 4.583640853058782 126.9 L 7.591655162878615 125.5 L 9.02404292945949 124.2 L 10.886147026014626 122.8 L 12.461773569253587 121.5 L 13.464445005860199 119.5 L 14.610355219124898 118.2 L 15.756265432389597 116.8 L 16.75893686899621 115.4 L 17.331891975628558 114 L 18.191324635577082 112.7 L 19.050757295525607 111.2 L 19.91018995547413 109.7 L 20.626383838764568 108.4 L 21.342577722055005 107 L 22.05877160534544 105.5 L 22.77496548863588 104 L 23.491159371926315 102.5 L 24.207353255216752 100.8 L 24.7803083618491 99.5 L 25.35326346848145 98.1 L 25.9262185751138 96.7 L 26.499173681746154 95.3 L 27.0721287883785 93.8 L 27.64508389501085 92.3 L 28.2180390016432 90.7 L 28.790994108275548 89.2 L 29.363949214907898 87.6 L 29.93690432154025 86 L 30.509859428172597 84.3 L 30.939575758146862 82.5 L 31.512530864779208 80.8 L 31.942247194753474 79.5 L 32.37196352472773 78.2 L 32.801679854701995 76.9 L 33.23139618467626 75.5 L 33.66111251465052 74.2 L 34.09082884462478 72.8 L 34.52054517459904 71.5 L 34.950261504573305 70.1 L 35.37997783454757 68.7 L 35.80969416452183 67.3 L 36.23941049449609 66 L 36.669126824470354 64.6 L 37.098843154444616 63.2 L 37.52855948441888 61.8 L 37.95827581439314 60.5 L 38.38799214436741 59.1 L 38.817708474341664 57.7 L 39.247424804315926 56.4 L 39.677141134290196 55 L 40.10685746426445 53.7 L 40.53657379423871 52.4 L 40.966290124212975 51 L 41.39600645418724 49.7 L 41.96896156081959 48 L 42.54191666745194 46.3 L 43.11487177408429 44.7 L 43.687826880716635 43.1 L 44.260781987348985 41.5 L 44.833737093981334 39.9 L 45.40669220061369 38.4 L 45.97964730724603 37 L 46.55260241387838 35.6 L 47.12555752051073 34.2 L 47.84175140380117 32.6 L 48.557945287091606 31.1 L 49.27413917038204 29.7 L 49.99033305367248 28.4 L 50.84976571362101 27 L 51.852437150227615 25.5 L 52.99834736349232 24.1 L 54.430735130073195 22.7 L 62.165629069609906 24.1 L 63.311539282874605 25.5 L 64.31421071948121 26.9 L 65.17364337942975 28.3 L 66.03307603937827 29.9 L 66.7492699226687 31.3 L 67.46546380595915 32.7 L 68.18165768924958 34.3 L 68.89785157254002 35.9 L 69.47080667917236 37.3 L 70.04376178580472 38.7 L 70.61671689243707 40.1 L 71.18967199906942 41.6 L 71.76262710570177 43.1 L 72.3355822123341 44.7 L 72.90853731896647 46.3 L 73.4814924255988 47.9 L 74.05444753223117 49.5 L 74.62740263886351 51.1 L 75.34359652215396 52.7 L 75.9165516287863 54.3 L 76.48950673541864 56 L 77.20570061870909 57.5 L 77.77865572534142 59.1 L 78.35161083197379 60.8 L 78.92456593860612 62.4 L 79.49752104523849 64 L 80.07047615187084 65.6 L 80.64343125850317 67.2 L 81.21638636513553 68.7 L 81.78934147176787 70.3 L 82.36229657840023 71.8 L 82.93525168503258 73.4 L 83.50820679166493 74.8 L 84.08116189829728 76.3 L 84.65411700492962 77.8 L 85.22707211156198 79.2 L 85.80002721819433 80.5 L 86.37298232482668 81.9 L 86.94593743145903 83.2 L 87.66213131474947 84.8 L 88.3783251980399 86.3 L 89.09451908133035 87.8 L 89.81071296462078 89.2 L 90.52690684791122 90.6 L 91.38633950785973 92.2 L 92.24577216780825 93.6 L 93.1052048277568 95 L 94.1078762643634 96.5 L 95.11054770097 97.8 L 96.2564579142347 99.2 L 97.5456069041575 100.6 L 98.6915171174222 102.2 L 99.83742733068688 103.5 L 101.41305387392586 104.9 L 102.41572531053247 106.2 L 110.58033558004344 107.6 L 116.88284175299928 106.3 L 130.77700308883377 107.6 L 133.7850173986536 108.9 L 136.22007660184107 110.3 L 138.3686582517124 111.7 L 140.3740011249256 113.1 L 142.23610522148076 114.4 L 144.0982093180359 115.8 L 145.960313414591 117.2 L 147.82241751114617 118.5 L 149.8277603843594 119.9 L 151.83310325757262 121.2 L 153.9816849074439 122.5 L 156.4167441106314 123.9 L 159.13828086713505 125.2 L 162.43277273027107 126.5 L 166.87317480667178 127.8 L 209.12861392080754 126.5 L 213.42577722055017 125.1 L 217.29322419031854 123.8 L 220.87419360677075 122.5 L 224.598401799881 121.1 L 228.7523263229655 119.8 L 234.7683549426052 118.5 L 249.95166526836246 119.8 L 254.10558979144702 121.1 L 257.8297979845573 122.5 L 261.4107674010095 123.8 L 265.13497559411974 125.1 L 269.4321388938624 126.4 L 274.7319736302116 127.7 L 287.9099410827556 130" fill="none"></path></g><g clip-path="none" height="300" width="260" transform="translate(290,345) rotate(90) scale(-1,1) scale(1 1)"  visibility="visible" class="highcharts-markers"></g><g clip-path="url(#highcharts-46)" height="300" width="260" transform="translate(290,345) rotate(90) scale(-1,1) scale(1 1)"  visibility="visible" class="highcharts-series"><rect ry="0" rx="0" height="0" width="1" y="130" x="2" fill="#00688B"></rect><rect ry="0" rx="0" height="0" width="1" y="130" x="5" fill="#00688B"></rect><rect ry="0" rx="0" height="0" width="1" y="130" x="8" fill="#00688B"></rect><rect ry="0" rx="0" height="0" width="1" y="130" x="10" fill="#00688B"></rect><rect ry="0" rx="0" height="0" width="1" y="130" x="13" fill="#00688B"></rect><rect ry="0" rx="0" height="0" width="1" y="130" x="16" fill="#00688B"></rect><rect ry="0" rx="0" height="0" width="1" y="130" x="19" fill="#00688B"></rect><rect ry="0" rx="0" height="0" width="1" y="130" x="22" fill="#00688B"></rect><rect ry="0" rx="0" height="0" width="1" y="130" x="25" fill="#00688B"></rect><rect ry="0" rx="0" height="0" width="1" y="130" x="28" fill="#00688B"></rect><rect ry="0" rx="0" height="0" width="1" y="130" x="31" fill="#00688B"></rect><rect ry="0" rx="0" height="0" width="1" y="130" x="33" fill="#00688B"></rect><rect ry="0" rx="0" height="0" width="1" y="130" x="36" fill="#00688B"></rect><rect ry="0" rx="0" height="0" width="1" y="130" x="39" fill="#00688B"></rect><rect ry="0" rx="0" height="0" width="1" y="130" x="42" fill="#00688B"></rect><rect ry="0" rx="0" height="0" width="1" y="130" x="45" fill="#00688B"></rect><rect ry="0" rx="0" height="0" width="1" y="130" x="48" fill="#00688B"></rect><rect ry="0" rx="0" height="0" width="1" y="65" x="51" fill="#00688B"></rect><rect ry="0" rx="0" height="33" width="1" y="130" x="53" fill="#00688B"></rect><rect ry="0" rx="0" height="65" width="1" y="130" x="56" fill="#00688B"></rect><rect ry="0" rx="0" height="0" width="1" y="130" x="59" fill="#00688B"></rect><rect ry="0" rx="0" height="33" width="1" y="130" x="62" fill="#00688B"></rect><rect ry="0" rx="0" height="33" width="1" y="130" x="65" fill="#00688B"></rect><rect ry="0" rx="0" height="33" width="1" y="130" x="68" fill="#00688B"></rect><rect ry="0" rx="0" height="33" width="1" y="130" x="71" fill="#00688B"></rect><rect ry="0" rx="0" height="0" width="1" y="130" x="73" fill="#00688B"></rect><rect ry="0" rx="0" height="0" width="1" y="130" x="76" fill="#00688B"></rect><rect ry="0" rx="0" height="0" width="1" y="98" x="79" fill="#00688B"></rect><rect ry="0" rx="0" height="0" width="1" y="130" x="82" fill="#00688B"></rect><rect ry="0" rx="0" height="0" width="1" y="130" x="85" fill="#00688B"></rect><rect ry="0" rx="0" height="0" width="1" y="130" x="88" fill="#00688B"></rect><rect ry="0" rx="0" height="0" width="1" y="130" x="91" fill="#00688B"></rect><rect ry="0" rx="0" height="0" width="1" y="130" x="94" fill="#00688B"></rect><rect ry="0" rx="0" height="0" width="1" y="130" x="96" fill="#00688B"></rect><rect ry="0" rx="0" height="0" width="1" y="130" x="99" fill="#00688B"></rect><rect ry="0" rx="0" height="0" width="1" y="130" x="102" fill="#00688B"></rect><rect ry="0" rx="0" height="0" width="1" y="130" x="105" fill="#00688B"></rect><rect ry="0" rx="0" height="0" width="1" y="130" x="108" fill="#00688B"></rect><rect ry="0" rx="0" height="0" width="1" y="130" x="111" fill="#00688B"></rect><rect ry="0" rx="0" height="0" width="1" y="130" x="114" fill="#00688B"></rect><rect ry="0" rx="0" height="0" width="1" y="130" x="116" fill="#00688B"></rect><rect ry="0" rx="0" height="0" width="1" y="130" x="119" fill="#00688B"></rect><rect ry="0" rx="0" height="0" width="1" y="130" x="122" fill="#00688B"></rect><rect ry="0" rx="0" height="0" width="1" y="65" x="125" fill="#00688B"></rect><rect ry="0" rx="0" height="0" width="1" y="130" x="128" fill="#00688B"></rect><rect ry="0" rx="0" height="0" width="1" y="130" x="131" fill="#00688B"></rect><rect ry="0" rx="0" height="0" width="1" y="130" x="134" fill="#00688B"></rect><rect ry="0" rx="0" height="0" width="1" y="130" x="137" fill="#00688B"></rect><rect ry="0" rx="0" height="0" width="1" y="130" x="139" fill="#00688B"></rect><rect ry="0" rx="0" height="0" width="1" y="130" x="142" fill="#00688B"></rect><rect ry="0" rx="0" height="0" width="1" y="130" x="145" fill="#00688B"></rect><rect ry="0" rx="0" height="0" width="1" y="130" x="148" fill="#00688B"></rect><rect ry="0" rx="0" height="0" width="1" y="130" x="151" fill="#00688B"></rect><rect ry="0" rx="0" height="0" width="1" y="130" x="154" fill="#00688B"></rect><rect ry="0" rx="0" height="0" width="1" y="130" x="157" fill="#00688B"></rect><rect ry="0" rx="0" height="0" width="1" y="130" x="159" fill="#00688B"></rect><rect ry="0" rx="0" height="0" width="1" y="130" x="162" fill="#00688B"></rect><rect ry="0" rx="0" height="0" width="1" y="130" x="165" fill="#00688B"></rect><rect ry="0" rx="0" height="0" width="1" y="130" x="168" fill="#00688B"></rect><rect ry="0" rx="0" height="0" width="1" y="130" x="171" fill="#00688B"></rect><rect ry="0" rx="0" height="0" width="1" y="130" x="174" fill="#00688B"></rect><rect ry="0" rx="0" height="0" width="1" y="130" x="177" fill="#00688B"></rect><rect ry="0" rx="0" height="0" width="1" y="130" x="179" fill="#00688B"></rect><rect ry="0" rx="0" height="0" width="1" y="130" x="182" fill="#00688B"></rect><rect ry="0" rx="0" height="0" width="1" y="130" x="185" fill="#00688B"></rect><rect ry="0" rx="0" height="0" width="1" y="130" x="188" fill="#00688B"></rect><rect ry="0" rx="0" height="0" width="1" y="130" x="191" fill="#00688B"></rect><rect ry="0" rx="0" height="0" width="1" y="130" x="194" fill="#00688B"></rect><rect ry="0" rx="0" height="0" width="1" y="130" x="197" fill="#00688B"></rect><rect ry="0" rx="0" height="0" width="1" y="130" x="200" fill="#00688B"></rect><rect ry="0" rx="0" height="0" width="1" y="130" x="202" fill="#00688B"></rect><rect ry="0" rx="0" height="0" width="1" y="130" x="205" fill="#00688B"></rect><rect ry="0" rx="0" height="0" width="1" y="130" x="208" fill="#00688B"></rect><rect ry="0" rx="0" height="0" width="1" y="130" x="211" fill="#00688B"></rect><rect ry="0" rx="0" height="0" width="1" y="130" x="214" fill="#00688B"></rect><rect ry="0" rx="0" height="0" width="1" y="130" x="217" fill="#00688B"></rect><rect ry="0" rx="0" height="0" width="1" y="130" x="220" fill="#00688B"></rect><rect ry="0" rx="0" height="0" width="1" y="130" x="222" fill="#00688B"></rect><rect ry="0" rx="0" height="0" width="1" y="130" x="225" fill="#00688B"></rect><rect ry="0" rx="0" height="0" width="1" y="130" x="228" fill="#00688B"></rect><rect ry="0" rx="0" height="0" width="1" y="130" x="231" fill="#00688B"></rect><rect ry="0" rx="0" height="0" width="1" y="130" x="234" fill="#00688B"></rect><rect ry="0" rx="0" height="0" width="1" y="130" x="237" fill="#00688B"></rect><rect ry="0" rx="0" height="0" width="1" y="98" x="240" fill="#00688B"></rect><rect ry="0" rx="0" height="0" width="1" y="130" x="243" fill="#00688B"></rect><rect ry="0" rx="0" height="0" width="1" y="130" x="245" fill="#00688B"></rect><rect ry="0" rx="0" height="0" width="1" y="130" x="248" fill="#00688B"></rect><rect ry="0" rx="0" height="0" width="1" y="130" x="251" fill="#00688B"></rect><rect ry="0" rx="0" height="0" width="1" y="130" x="254" fill="#00688B"></rect><rect ry="0" rx="0" height="0" width="1" y="130" x="257" fill="#00688B"></rect><rect ry="0" rx="0" height="0" width="1" y="130" x="260" fill="#00688B"></rect><rect ry="0" rx="0" height="0" width="1" y="130" x="263" fill="#00688B"></rect><rect ry="0" rx="0" height="0" width="1" y="130" x="265" fill="#00688B"></rect><rect ry="0" rx="0" height="0" width="1" y="130" x="268" fill="#00688B"></rect><rect ry="0" rx="0" height="0" width="1" y="130" x="271" fill="#00688B"></rect><rect ry="0" rx="0" height="0" width="1" y="130" x="274" fill="#00688B"></rect><rect ry="0" rx="0" height="0" width="1" y="130" x="277" fill="#00688B"></rect><rect ry="0" rx="0" height="0" width="1" y="130" x="280" fill="#00688B"></rect><rect ry="0" rx="0" height="0" width="1" y="130" x="283" fill="#00688B"></rect><rect ry="0" rx="0" height="0" width="1" y="130" x="285" fill="#00688B"></rect></g><g clip-path="none" height="300" width="260" transform="translate(290,345) rotate(90) scale(-1,1) scale(1 1)"  visibility="visible" class="highcharts-markers"></g><g clip-path="url(#highcharts-46)" height="300" width="260" transform="translate(290,345) rotate(90) scale(-1,1) scale(1 1)"  visibility="visible" class="highcharts-series"><rect ry="0" rx="0" height="0" width="1" y="130" x="2" fill="#B22222"></rect><rect ry="0" rx="0" height="0" width="1" y="130" x="5" fill="#B22222"></rect><rect ry="0" rx="0" height="0" width="1" y="130" x="8" fill="#B22222"></rect><rect ry="0" rx="0" height="0" width="1" y="130" x="10" fill="#B22222"></rect><rect ry="0" rx="0" height="0" width="1" y="130" x="13" fill="#B22222"></rect><rect ry="0" rx="0" height="0" width="1" y="130" x="16" fill="#B22222"></rect><rect ry="0" rx="0" height="0" width="1" y="130" x="19" fill="#B22222"></rect><rect ry="0" rx="0" height="0" width="1" y="130" x="22" fill="#B22222"></rect><rect ry="0" rx="0" height="0" width="1" y="130" x="25" fill="#B22222"></rect><rect ry="0" rx="0" height="0" width="1" y="130" x="28" fill="#B22222"></rect><rect ry="0" rx="0" height="0" width="1" y="130" x="31" fill="#B22222"></rect><rect ry="0" rx="0" height="0" width="1" y="130" x="33" fill="#B22222"></rect><rect ry="0" rx="0" height="0" width="1" y="130" x="36" fill="#B22222"></rect><rect ry="0" rx="0" height="0" width="1" y="130" x="39" fill="#B22222"></rect><rect ry="0" rx="0" height="0" width="1" y="130" x="42" fill="#B22222"></rect><rect ry="0" rx="0" height="0" width="1" y="130" x="45" fill="#B22222"></rect><rect ry="0" rx="0" height="0" width="1" y="130" x="48" fill="#B22222"></rect><rect ry="0" rx="0" height="65" width="1" y="65" x="51" fill="#B22222"></rect><rect ry="0" rx="0" height="97" width="1" y="33" x="53" fill="#B22222"></rect><rect ry="0" rx="0" height="32" width="1" y="98" x="56" fill="#B22222"></rect><rect ry="0" rx="0" height="0" width="1" y="130" x="59" fill="#B22222"></rect><rect ry="0" rx="0" height="65" width="1" y="65" x="62" fill="#B22222"></rect><rect ry="0" rx="0" height="0" width="1" y="130" x="65" fill="#B22222"></rect><rect ry="0" rx="0" height="32" width="1" y="98" x="68" fill="#B22222"></rect><rect ry="0" rx="0" height="0" width="1" y="130" x="71" fill="#B22222"></rect><rect ry="0" rx="0" height="0" width="1" y="130" x="73" fill="#B22222"></rect><rect ry="0" rx="0" height="0" width="1" y="130" x="76" fill="#B22222"></rect><rect ry="0" rx="0" height="32" width="1" y="98" x="79" fill="#B22222"></rect><rect ry="0" rx="0" height="0" width="1" y="130" x="82" fill="#B22222"></rect><rect ry="0" rx="0" height="0" width="1" y="130" x="85" fill="#B22222"></rect><rect ry="0" rx="0" height="0" width="1" y="130" x="88" fill="#B22222"></rect><rect ry="0" rx="0" height="0" width="1" y="130" x="91" fill="#B22222"></rect><rect ry="0" rx="0" height="0" width="1" y="130" x="94" fill="#B22222"></rect><rect ry="0" rx="0" height="0" width="1" y="130" x="96" fill="#B22222"></rect><rect ry="0" rx="0" height="0" width="1" y="130" x="99" fill="#B22222"></rect><rect ry="0" rx="0" height="0" width="1" y="130" x="102" fill="#B22222"></rect><rect ry="0" rx="0" height="0" width="1" y="130" x="105" fill="#B22222"></rect><rect ry="0" rx="0" height="0" width="1" y="130" x="108" fill="#B22222"></rect><rect ry="0" rx="0" height="0" width="1" y="130" x="111" fill="#B22222"></rect><rect ry="0" rx="0" height="0" width="1" y="130" x="114" fill="#B22222"></rect><rect ry="0" rx="0" height="0" width="1" y="130" x="116" fill="#B22222"></rect><rect ry="0" rx="0" height="0" width="1" y="130" x="119" fill="#B22222"></rect><rect ry="0" rx="0" height="0" width="1" y="130" x="122" fill="#B22222"></rect><rect ry="0" rx="0" height="65" width="1" y="65" x="125" fill="#B22222"></rect><rect ry="0" rx="0" height="0" width="1" y="130" x="128" fill="#B22222"></rect><rect ry="0" rx="0" height="0" width="1" y="130" x="131" fill="#B22222"></rect><rect ry="0" rx="0" height="0" width="1" y="130" x="134" fill="#B22222"></rect><rect ry="0" rx="0" height="0" width="1" y="130" x="137" fill="#B22222"></rect><rect ry="0" rx="0" height="0" width="1" y="130" x="139" fill="#B22222"></rect><rect ry="0" rx="0" height="0" width="1" y="130" x="142" fill="#B22222"></rect><rect ry="0" rx="0" height="0" width="1" y="130" x="145" fill="#B22222"></rect><rect ry="0" rx="0" height="0" width="1" y="130" x="148" fill="#B22222"></rect><rect ry="0" rx="0" height="0" width="1" y="130" x="151" fill="#B22222"></rect><rect ry="0" rx="0" height="0" width="1" y="130" x="154" fill="#B22222"></rect><rect ry="0" rx="0" height="0" width="1" y="130" x="157" fill="#B22222"></rect><rect ry="0" rx="0" height="0" width="1" y="130" x="159" fill="#B22222"></rect><rect ry="0" rx="0" height="0" width="1" y="130" x="162" fill="#B22222"></rect><rect ry="0" rx="0" height="0" width="1" y="130" x="165" fill="#B22222"></rect><rect ry="0" rx="0" height="0" width="1" y="130" x="168" fill="#B22222"></rect><rect ry="0" rx="0" height="0" width="1" y="130" x="171" fill="#B22222"></rect><rect ry="0" rx="0" height="0" width="1" y="130" x="174" fill="#B22222"></rect><rect ry="0" rx="0" height="0" width="1" y="130" x="177" fill="#B22222"></rect><rect ry="0" rx="0" height="0" width="1" y="130" x="179" fill="#B22222"></rect><rect ry="0" rx="0" height="0" width="1" y="130" x="182" fill="#B22222"></rect><rect ry="0" rx="0" height="0" width="1" y="130" x="185" fill="#B22222"></rect><rect ry="0" rx="0" height="0" width="1" y="130" x="188" fill="#B22222"></rect><rect ry="0" rx="0" height="0" width="1" y="130" x="191" fill="#B22222"></rect><rect ry="0" rx="0" height="0" width="1" y="130" x="194" fill="#B22222"></rect><rect ry="0" rx="0" height="0" width="1" y="130" x="197" fill="#B22222"></rect><rect ry="0" rx="0" height="0" width="1" y="130" x="200" fill="#B22222"></rect><rect ry="0" rx="0" height="0" width="1" y="130" x="202" fill="#B22222"></rect><rect ry="0" rx="0" height="0" width="1" y="130" x="205" fill="#B22222"></rect><rect ry="0" rx="0" height="0" width="1" y="130" x="208" fill="#B22222"></rect><rect ry="0" rx="0" height="0" width="1" y="130" x="211" fill="#B22222"></rect><rect ry="0" rx="0" height="0" width="1" y="130" x="214" fill="#B22222"></rect><rect ry="0" rx="0" height="0" width="1" y="130" x="217" fill="#B22222"></rect><rect ry="0" rx="0" height="0" width="1" y="130" x="220" fill="#B22222"></rect><rect ry="0" rx="0" height="0" width="1" y="130" x="222" fill="#B22222"></rect><rect ry="0" rx="0" height="0" width="1" y="130" x="225" fill="#B22222"></rect><rect ry="0" rx="0" height="0" width="1" y="130" x="228" fill="#B22222"></rect><rect ry="0" rx="0" height="0" width="1" y="130" x="231" fill="#B22222"></rect><rect ry="0" rx="0" height="0" width="1" y="130" x="234" fill="#B22222"></rect><rect ry="0" rx="0" height="0" width="1" y="130" x="237" fill="#B22222"></rect><rect ry="0" rx="0" height="32" width="1" y="98" x="240" fill="#B22222"></rect><rect ry="0" rx="0" height="0" width="1" y="130" x="243" fill="#B22222"></rect><rect ry="0" rx="0" height="0" width="1" y="130" x="245" fill="#B22222"></rect><rect ry="0" rx="0" height="0" width="1" y="130" x="248" fill="#B22222"></rect><rect ry="0" rx="0" height="0" width="1" y="130" x="251" fill="#B22222"></rect><rect ry="0" rx="0" height="0" width="1" y="130" x="254" fill="#B22222"></rect><rect ry="0" rx="0" height="0" width="1" y="130" x="257" fill="#B22222"></rect><rect ry="0" rx="0" height="0" width="1" y="130" x="260" fill="#B22222"></rect><rect ry="0" rx="0" height="0" width="1" y="130" x="263" fill="#B22222"></rect><rect ry="0" rx="0" height="0" width="1" y="130" x="265" fill="#B22222"></rect><rect ry="0" rx="0" height="0" width="1" y="130" x="268" fill="#B22222"></rect><rect ry="0" rx="0" height="0" width="1" y="130" x="271" fill="#B22222"></rect><rect ry="0" rx="0" height="0" width="1" y="130" x="274" fill="#B22222"></rect><rect ry="0" rx="0" height="0" width="1" y="130" x="277" fill="#B22222"></rect><rect ry="0" rx="0" height="0" width="1" y="130" x="280" fill="#B22222"></rect><rect ry="0" rx="0" height="0" width="1" y="130" x="283" fill="#B22222"></rect><rect ry="0" rx="0" height="0" width="1" y="130" x="285" fill="#B22222"></rect></g><g clip-path="none" height="300" width="260" transform="translate(290,345) rotate(90) scale(-1,1) scale(1 1)"  visibility="visible" class="highcharts-markers"></g></g><text  class="highcharts-title" text-anchor="middle" style="font-family:'lucida grande', 'lucida sans unicode', verdana, arial, helvetica, sans-serif;font-size:16px;color:#274b6d;fill:#274b6d;" y="25" x="150"><tspan x="150">Beanplot</tspan></text><text  class="highcharts-subtitle" text-anchor="middle" style="font-family:'lucida grande', 'lucida sans unicode', verdana, arial, helvetica, sans-serif;font-size:10px;color:#4d759e;fill:#4d759e;" y="40" x="150"><tspan x="150">T-test p-value: 0.18</tspan></text><g transform="translate(20,365)"  class="highcharts-legend"><rect visibility="visible" stroke-width="1" stroke="#909090" height="24" width="259" y="0.5" x="0.5" fill="none" ry="5" rx="5"></rect><g clip-path="url(#highcharts-45)" ><g><g transform="translate(8,3)"  class="highcharts-legend-item"><text  text-anchor="start" style="font-family:'lucida grande', 'lucida sans unicode', verdana, arial, helvetica, sans-serif;font-size:12px;cursor:pointer;color:#274b6d;fill:#274b6d;" y="15" x="21"><tspan x="21">Early CaptiveSpray</tspan></text><rect  height="12" width="16" y="4" x="0" fill="#01698C" ry="4" rx="4"></rect></g><g transform="translate(142,3)"  class="highcharts-legend-item"><text  text-anchor="start" style="font-family:'lucida grande', 'lucida sans unicode', verdana, arial, helvetica, sans-serif;font-size:12px;cursor:pointer;color:#274b6d;fill:#274b6d;" y="15" x="21"><tspan x="21">Late NanoSpray</tspan></text><rect  height="12" width="16" y="4" x="0" fill="#B32323" ry="4" rx="4"></rect></g></g></g></g><g  class="highcharts-axis-labels"><text opacity="1" text-anchor="end" style="font-family:'lucida grande', 'lucida sans unicode', verdana, arial, helvetica, sans-serif;font-size:11px;width:110px;color:#666;cursor:default;line-height:14px;fill:#666;" y="317.49040408006886" x="22"><tspan x="22">0</tspan></text><text opacity="1" text-anchor="end" style="font-family:'lucida grande', 'lucida sans unicode', verdana, arial, helvetica, sans-serif;font-size:11px;width:110px;color:#666;cursor:default;line-height:14px;fill:#666;" y="229.1710653089062" x="22"><tspan x="22">20</tspan></text><text opacity="1" text-anchor="end" style="font-family:'lucida grande', 'lucida sans unicode', verdana, arial, helvetica, sans-serif;font-size:11px;width:110px;color:#666;cursor:default;line-height:14px;fill:#666;" y="140.8517265377435" x="22"><tspan x="22">40</tspan></text><text opacity="1" text-anchor="end" style="font-family:'lucida grande', 'lucida sans unicode', verdana, arial, helvetica, sans-serif;font-size:11px;width:110px;color:#666;cursor:default;line-height:14px;fill:#666;" y="52.53238776658086" x="22"><tspan x="22">60</tspan></text></g><g  class="highcharts-axis-labels"><text opacity="1" text-anchor="middle" style="font-family:'lucida grande', 'lucida sans unicode', verdana, arial, helvetica, sans-serif;font-size:11px;color:#666;cursor:default;line-height:14px;fill:#666;" y="359" x="30"><tspan x="30">4</tspan></text><text opacity="1" text-anchor="middle" style="font-family:'lucida grande', 'lucida sans unicode', verdana, arial, helvetica, sans-serif;font-size:11px;color:#666;cursor:default;line-height:14px;fill:#666;" y="359" x="95"><tspan x="95">2</tspan></text><text opacity="1" text-anchor="middle" style="font-family:'lucida grande', 'lucida sans unicode', verdana, arial, helvetica, sans-serif;font-size:11px;color:#666;cursor:default;line-height:14px;fill:#666;" y="359" x="160"><tspan x="160">0</tspan></text><text opacity="1" text-anchor="middle" style="font-family:'lucida grande', 'lucida sans unicode', verdana, arial, helvetica, sans-serif;font-size:11px;color:#666;cursor:default;line-height:14px;fill:#666;" y="359" x="225"><tspan x="225">2</tspan></text><text opacity="1" text-anchor="middle" style="font-family:'lucida grande', 'lucida sans unicode', verdana, arial, helvetica, sans-serif;font-size:11px;color:#666;cursor:default;line-height:14px;fill:#666;" y="359" x="290"><tspan x="290">4</tspan></text></g><g visibility="hidden" style="cursor:default;padding:0;white-space:nowrap;"  class="highcharts-tooltip"><rect transform="translate(1, 1)" stroke-width="5" stroke-opacity="0.049999999999999996" stroke="black"  fill-opacity="0.85" height="16" width="16" y="0.5" x="0.5" fill="none" ry="3" rx="3"></rect><rect transform="translate(1, 1)" stroke-width="3" stroke-opacity="0.09999999999999999" stroke="black"  fill-opacity="0.85" height="16" width="16" y="0.5" x="0.5" fill="none" ry="3" rx="3"></rect><rect transform="translate(1, 1)" stroke-width="1" stroke-opacity="0.15" stroke="black"  fill-opacity="0.85" height="16" width="16" y="0.5" x="0.5" fill="none" ry="3" rx="3"></rect><rect fill-opacity="0.85" height="16" width="16" y="0.5" x="0.5" fill="rgb(255,255,255)" ry="3" rx="3"></rect><text  style="font-family:'lucida grande', 'lucida sans unicode', verdana, arial, helvetica, sans-serif;font-size:12px;color:#333333;fill:#333333;" y="21" x="8"></text></g></svg>