<svg xmlns:xlink="http://www.w3.org/1999/xlink" height="400" width="600" version="1.1" xmlns="http://www.w3.org/2000/svg"><desc>Created with Highcharts 3.0.1</desc><defs><clipPath id="highcharts-21"><rect height="400" width="9999" y="0" x="0" fill="none" ry="0" rx="0"></rect></clipPath><clipPath id="highcharts-22"><rect height="299" width="560" y="0" x="0" fill="none"></rect></clipPath></defs><rect height="400" width="600" y="0" x="0" fill="#FFFFFF" ry="0" rx="0"></rect><g  class="highcharts-grid"><path opacity="1"  stroke-width="1" stroke="#C0C0C0" d="M 213.5 45 L 213.5 345" fill="none"></path><path opacity="1"  stroke-width="1" stroke="#C0C0C0" d="M 308.5 45 L 308.5 345" fill="none"></path><path opacity="1"  stroke-width="1" stroke="#C0C0C0" d="M 401.5 45 L 401.5 345" fill="none"></path><path opacity="1"  stroke-width="1" stroke="#C0C0C0" d="M 497.5 45 L 497.5 345" fill="none"></path><path opacity="1"  stroke-width="1" stroke="#C0C0C0" d="M 118.5 45 L 118.5 345" fill="none"></path></g><g  class="highcharts-grid"><path opacity="1"  stroke-width="1" stroke="#C0C0C0" d="M 30 270.5 L 590 270.5" fill="none"></path><path opacity="1"  stroke-width="1" stroke="#C0C0C0" d="M 30 195.5 L 590 195.5" fill="none"></path><path opacity="1"  stroke-width="1" stroke="#C0C0C0" d="M 30 120.5 L 590 120.5" fill="none"></path><path opacity="1"  stroke-width="1" stroke="#C0C0C0" d="M 30 45.5 L 590 45.5" fill="none"></path><path opacity="1"  stroke-width="1" stroke="#C0C0C0" d="M 30 345.5 L 590 345.5" fill="none"></path></g><g  class="highcharts-axis"><path opacity="1" stroke-width="1" stroke="#C0D0E0" d="M 213.5 345 L 213.5 350" fill="none"></path><path opacity="1" stroke-width="1" stroke="#C0D0E0" d="M 308.5 345 L 308.5 350" fill="none"></path><path opacity="1" stroke-width="1" stroke="#C0D0E0" d="M 401.5 345 L 401.5 350" fill="none"></path><path opacity="1" stroke-width="1" stroke="#C0D0E0" d="M 497.5 345 L 497.5 350" fill="none"></path><path opacity="1" stroke-width="1" stroke="#C0D0E0" d="M 118.5 345 L 118.5 350" fill="none"></path><path visibility="visible"  stroke-width="1" stroke="#C0D0E0" d="M 30 344.5 L 590 344.5" fill="none"></path></g><g  class="highcharts-axis"></g><g  class="highcharts-series-group"><g clip-path="url(#highcharts-22)" transform="translate(30,45) scale(1 1)"  visibility="visible" class="highcharts-series"><path  stroke-width="2" stroke="#00688B" d="M 14.88936343074647 300 L 21.926219286378306 287.9 L 35.9213129264052 274.9 L 126.7962645569638 263.9 L 136.3785150888714 253.7 L 139.7025517583553 240.6 L 155.11654004022407 231.5 L 177.64061744956172 219.6 L 206.32705929200696 206.4 L 239.75643244577802 196.2 L 302.2077204446006 186.5 L 313.54972342035614 176.2 L 332.6032976165359 161.7 L 344.68032571036133 150.5 L 362.00591777915184 139.5 L 370.10788695606004 128.5 L 421.2774817324046 117.6 L 429.89854557145156 107.6 L 452.74678790465595 94.3 L 553.599772823006 83.1 L 554.5098039215686 74.8" fill="none"></path></g><g clip-path="none" transform="translate(30,45) scale(1 1)"  visibility="visible" class="highcharts-markers"><path style=""  stroke-width="22" stroke="rgb(192,192,192)" stroke-opacity="0.0001" visibility="visible" stroke-linejoin="round" class="highcharts-tracker highcharts-tracker" d="M 4.889363430746471 300 L 14.88936343074647 300 L 21.926219286378306 287.9 L 35.9213129264052 274.9 L 126.7962645569638 263.9 L 136.3785150888714 253.7 L 139.7025517583553 240.6 L 155.11654004022407 231.5 L 177.64061744956172 219.6 L 206.32705929200696 206.4 L 239.75643244577802 196.2 L 302.2077204446006 186.5 L 313.54972342035614 176.2 L 332.6032976165359 161.7 L 344.68032571036133 150.5 L 362.00591777915184 139.5 L 370.10788695606004 128.5 L 421.2774817324046 117.6 L 429.89854557145156 107.6 L 452.74678790465595 94.3 L 553.599772823006 83.1 L 554.5098039215686 74.8 L 564.5098039215686 74.8" fill="none"></path></g><g clip-path="url(#highcharts-22)" transform="translate(30,45) scale(1 1)"  visibility="visible" class="highcharts-series"><path  stroke-width="2" stroke="#B22222" d="M 5.490196078431373 296.7 L 33.08998540200115 285.1 L 47.03392344773013 269.8 L 64.01973467439456 255.1 L 69.60592557172579 239.4 L 80.67007289845272 228.3 L 83.5347861791354 212.1 L 114.94916739750896 198.8 L 136.22774070567758 183.2 L 164.79517848138772 170.4 L 279.89903501125417 155.9 L 304.27386797429597 140.8 L 354.36111807128486 128.7 L 377.16305112965114 112.2 L 380.88933231429854 98.9 L 423.90203295985714 83.5 L 553.1910665485626 70.2" fill="none"></path></g><g clip-path="none" transform="translate(30,45) scale(1 1)"  visibility="visible" class="highcharts-markers"><path style=""  stroke-width="22" stroke="rgb(192,192,192)" stroke-opacity="0.0001" visibility="visible" stroke-linejoin="round" class="highcharts-tracker highcharts-tracker" d="M -4.509803921568627 296.7 L 5.490196078431373 296.7 L 33.08998540200115 285.1 L 47.03392344773013 269.8 L 64.01973467439456 255.1 L 69.60592557172579 239.4 L 80.67007289845272 228.3 L 83.5347861791354 212.1 L 114.94916739750896 198.8 L 136.22774070567758 183.2 L 164.79517848138772 170.4 L 279.89903501125417 155.9 L 304.27386797429597 140.8 L 354.36111807128486 128.7 L 377.16305112965114 112.2 L 380.88933231429854 98.9 L 423.90203295985714 83.5 L 553.1910665485626 70.2 L 563.1910665485626 70.2" fill="none"></path></g></g><text  class="highcharts-title" text-anchor="middle" style="font-family:'lucida grande', 'lucida sans unicode', verdana, arial, helvetica, sans-serif;font-size:16px;color:#274b6d;fill:#274b6d;" y="25" x="300"><tspan x="300">Values over Time</tspan></text><text  class="highcharts-subtitle" text-anchor="middle" style="font-family:'lucida grande', 'lucida sans unicode', verdana, arial, helvetica, sans-serif;font-size:11px;color:#4d759e;fill:#4d759e;" y="40" x="300"><tspan x="300">UPLC--Pressure Trace--Average Pressure (psi)</tspan></text><g transform="translate(242,365)"  class="highcharts-legend"><rect visibility="visible" stroke-width="1" stroke="#909090" height="24" width="115" y="0.5" x="0.5" fill="none" ry="5" rx="5"></rect><g clip-path="url(#highcharts-21)" ><g><g transform="translate(8,3)"  class="highcharts-legend-item"><path stroke-width="2" stroke="#00688B" d="M 0 11 L 16 11" fill="none"></path><text  text-anchor="start" style="font-family:'lucida grande', 'lucida sans unicode', verdana, arial, helvetica, sans-serif;font-size:12px;cursor:pointer;color:#274b6d;fill:#274b6d;" y="15" x="21"><tspan x="21">20%</tspan></text></g><g transform="translate(62,3)"  class="highcharts-legend-item"><path stroke-width="2" stroke="#B22222" d="M 0 11 L 16 11" fill="none"></path><text  text-anchor="start" style="font-family:'lucida grande', 'lucida sans unicode', verdana, arial, helvetica, sans-serif;font-size:12px;cursor:pointer;color:#274b6d;fill:#274b6d;" y="15" x="21"><tspan x="21">30%</tspan></text></g></g></g></g><g  class="highcharts-axis-labels"><text opacity="1" text-anchor="middle" style="font-family:'lucida grande', 'lucida sans unicode', verdana, arial, helvetica, sans-serif;font-size:11px;color:#666;cursor:default;line-height:14px;fill:#666;" y="359" x="118.63257577090664"><tspan x="118.63257577090664">May '11</tspan></text><text opacity="1" text-anchor="middle" style="font-family:'lucida grande', 'lucida sans unicode', verdana, arial, helvetica, sans-serif;font-size:11px;color:#666;cursor:default;line-height:14px;fill:#666;" y="359" x="214.00814273980095"><tspan x="214.00814273980095">Sep '11</tspan></text><text opacity="1" text-anchor="middle" style="font-family:'lucida grande', 'lucida sans unicode', verdana, arial, helvetica, sans-serif;font-size:11px;color:#666;cursor:default;line-height:14px;fill:#666;" y="359" x="308.608298595127"><tspan x="308.608298595127">Jan '12</tspan></text><text opacity="1" text-anchor="middle" style="font-family:'lucida grande', 'lucida sans unicode', verdana, arial, helvetica, sans-serif;font-size:11px;color:#666;cursor:default;line-height:14px;fill:#666;" y="359" x="402.43304333688485"><tspan x="402.43304333688485">May '12</tspan></text><text opacity="1" text-anchor="middle" style="font-family:'lucida grande', 'lucida sans unicode', verdana, arial, helvetica, sans-serif;font-size:11px;color:#666;cursor:default;line-height:14px;fill:#666;" y="359" x="497.80861030577915"><tspan x="497.80861030577915">Sep '12</tspan></text></g><g  class="highcharts-axis-labels"><text opacity="1" text-anchor="end" style="font-family:'lucida grande', 'lucida sans unicode', verdana, arial, helvetica, sans-serif;font-size:11px;width:260px;color:#666;cursor:default;line-height:14px;fill:#666;" y="351.0906252929596" x="22"><tspan x="22">0k</tspan></text><text opacity="1" text-anchor="end" style="font-family:'lucida grande', 'lucida sans unicode', verdana, arial, helvetica, sans-serif;font-size:11px;width:260px;color:#666;cursor:default;line-height:14px;fill:#666;" y="276.0929689697197" x="22"><tspan x="22">2k</tspan></text><text opacity="1" text-anchor="end" style="font-family:'lucida grande', 'lucida sans unicode', verdana, arial, helvetica, sans-serif;font-size:11px;width:260px;color:#666;cursor:default;line-height:14px;fill:#666;" y="201.09531264647978" x="22"><tspan x="22">4k</tspan></text><text opacity="1" text-anchor="end" style="font-family:'lucida grande', 'lucida sans unicode', verdana, arial, helvetica, sans-serif;font-size:11px;width:260px;color:#666;cursor:default;line-height:14px;fill:#666;" y="126.09765632323987" x="22"><tspan x="22">6k</tspan></text><text opacity="1" text-anchor="end" style="font-family:'lucida grande', 'lucida sans unicode', verdana, arial, helvetica, sans-serif;font-size:11px;width:260px;color:#666;cursor:default;line-height:14px;fill:#666;" y="51.1" x="22"><tspan x="22">8k</tspan></text></g><g visibility="hidden" style="cursor:default;padding:0;white-space:nowrap;"  class="highcharts-tooltip"><rect transform="translate(1, 1)" stroke-width="5" stroke-opacity="0.049999999999999996" stroke="black"  fill-opacity="0.85" height="16" width="16" y="0.5" x="0.5" fill="none" ry="3" rx="3"></rect><rect transform="translate(1, 1)" stroke-width="3" stroke-opacity="0.09999999999999999" stroke="black"  fill-opacity="0.85" height="16" width="16" y="0.5" x="0.5" fill="none" ry="3" rx="3"></rect><rect transform="translate(1, 1)" stroke-width="1" stroke-opacity="0.15" stroke="black"  fill-opacity="0.85" height="16" width="16" y="0.5" x="0.5" fill="none" ry="3" rx="3"></rect><rect fill-opacity="0.85" height="16" width="16" y="0.5" x="0.5" fill="rgb(255,255,255)" ry="3" rx="3"></rect><text  style="font-family:'lucida grande', 'lucida sans unicode', verdana, arial, helvetica, sans-serif;font-size:12px;color:#333333;fill:#333333;" y="21" x="8"></text></g></svg>